<?xml version="1.0" encoding="utf-8"?>
<!-- Generator: Adobe Illustrator 22.0.0, SVG Export Plug-In . SVG Version: 6.00 Build 0)  -->
<svg version="1.1" id="Layer_1" xmlns="http://www.w3.org/2000/svg" xmlns:xlink="http://www.w3.org/1999/xlink" x="0px" y="0px"
	 viewBox="0 0 331.6 333" style="enable-background:new 0 0 331.6 333;" xml:space="preserve">
<style type="text/css">
	.st0{fill:#232121;}
</style>
<g>
	<g>
		<path class="st0" d="M148.5,83.6c6.2,8.6,9.2,18.8,9.2,30.8c0,12.4-3.2,22.2-9.2,29.8c-3.4,4.2-8.6,8-15.2,11.4
			c10.2,3.8,17.8,9.6,23,17.8c5.2,8.2,7.8,18,7.8,29.6c0,12-3,22.8-9,32.2c-3.8,6.4-8.4,11.6-14.2,16c-6.4,5-14,8.2-22.6,10.2
			c-8.6,1.8-18,2.6-28.2,2.6H0.2V62.2h96.5C121.1,62.4,138.3,69.6,148.5,83.6z M40.2,97.2v44.6h48.6c8.6,0,15.6-1.6,21.2-5
			c5.4-3.4,8-9.2,8-17.8c0-9.4-3.6-15.6-10.8-18.6c-6.2-2.2-14-3.2-23.6-3.2H40.2z M40.2,175.1v53.8h48.4c8.6,0,15.4-1.2,20.2-3.6
			c8.8-4.4,13.2-12.8,13.2-25.2c0-10.6-4.2-17.8-12.8-21.6c-4.8-2.2-11.4-3.4-20-3.4L40.2,175.1L40.2,175.1z"/>
		<path class="st0" d="M293,117.8c10.4,4.6,18.8,12,25.6,22.2c6,9,10,19.2,11.8,31c1,6.8,1.4,16.6,1.2,29.6H224
			c0.6,15,5.8,25.6,15.4,31.6c5.8,3.8,13,5.6,21.2,5.6c8.8,0,16-2.2,21.4-6.8c3-2.4,5.6-5.8,8-10.2h39.4c-1,8.8-5.8,17.8-14.4,27
			c-13.2,14.4-31.8,21.8-55.6,21.8c-19.6,0-37-6.2-52-18.4c-15-12.2-22.4-32.2-22.4-59.8c0-25.8,6.8-45.8,20.4-59.6
			C219,118,236.6,111,258.2,111C271,110.8,282.6,113.2,293,117.8z M235.2,151.6c-5.4,5.8-8.8,13.4-10.2,23.2h66.5
			c-0.8-10.4-4.2-18.4-10.4-23.6c-6.2-5.4-13.8-8-22.8-8C248.4,143,240.6,145.8,235.2,151.6z"/>
	</g>
	<rect x="207.3" y="82.8" class="st0" width="103.5" height="20.8"/>
</g>
</svg>
