<?xml version="1.0" encoding="utf-8"?>
<!-- Generator: Adobe Illustrator 22.0.0, SVG Export Plug-In . SVG Version: 6.00 Build 0)  -->
<svg version="1.1" id="Layer_1" xmlns="http://www.w3.org/2000/svg" xmlns:xlink="http://www.w3.org/1999/xlink" x="0px" y="0px"
	 viewBox="0 0 331.6 333" style="enable-background:new 0 0 331.6 333;" xml:space="preserve">
<style type="text/css">
	.st0{fill:#232121;}
</style>
<path class="st0" d="M165.8,0C74.2,0,0,74.2,0,165.8s74.2,165.8,165.8,165.8s165.8-74.2,165.8-165.8S257.3,0,165.8,0z M208.7,107
	c0,0-13.2,0-20.4,0s-8.3,6.3-8.3,8.1c0,1.8-0.2,19.6-0.2,19.6h28.8l-3.6,31h-24.9v90.1h-37.8v-90.1h-17.7v-31h18.7
	c0,0,0-13.7,0-29.9s19.1-29.2,28.5-29.2s36.8,0,36.8,0L208.7,107L208.7,107z"/>
</svg>
