<?xml version="1.0" encoding="utf-8"?>
<!-- Generator: Adobe Illustrator 22.0.0, SVG Export Plug-In . SVG Version: 6.00 Build 0)  -->
<svg version="1.1" id="Layer_1" xmlns="http://www.w3.org/2000/svg" xmlns:xlink="http://www.w3.org/1999/xlink" x="0px" y="0px"
	 viewBox="0 0 331.6 333" style="enable-background:new 0 0 331.6 333;" xml:space="preserve">
<style type="text/css">
	.st0{fill:#FFFFFF;}
</style>
<g>
	<path class="st0" d="M165.8,1.8c16.5,0,33-0.2,49.5,0.1c11.1,0.2,22.3,0.7,33.3,2c19.9,2.3,37.9,9.3,52.8,23.2
		c14,13.1,22.2,29.2,26.2,47.8c2.3,10.7,2.9,21.6,3.2,32.5c1.1,37,0.9,74,0.3,111c-0.2,10.6-0.7,21.2-2,31.7
		c-2.5,21.8-10.7,41.1-26.9,56.6c-12.4,11.9-27.3,19-44,22.6c-10.8,2.3-21.7,3-32.7,3.3c-36.8,1.1-73.7,0.8-110.5,0.3
		c-10.7-0.2-21.5-0.7-32.1-2c-19.3-2.3-36.9-8.9-51.6-22c-13.5-12.3-22-27.4-26.5-44.9c-2.4-9.6-3.5-19.4-3.9-29.3
		c-1.6-39.4-1.1-78.7-0.6-118.1C0.4,105.8,1,95,2.3,84.3c2.4-19.9,9.4-37.9,23.3-52.9C39.1,17.1,55.8,8.9,74.9,5.1
		C85.5,3,96.2,2.4,107,2.2c19.6-0.4,39.2-0.6,58.9-0.9C165.8,1.5,165.8,1.7,165.8,1.8z M171.1,303.4c14.7-0.2,34.8-0.5,54.9-0.9
		c9.3-0.2,18.6-0.8,27.7-2.9c12.7-3,23.6-8.9,32.1-19c7.4-8.8,11.2-19.1,13.2-30.2c1.7-9.8,2-19.6,2.2-29.5
		c0.6-38.3,0.9-76.7-0.3-115c-0.3-8.9-0.9-17.8-2.9-26.6c-3.2-13.7-9.8-25.1-21-33.8c-8.9-6.8-19.2-10.4-30.1-11.7
		c-9.2-1.1-18.6-1.8-27.9-2c-38.2-0.7-76.4-0.9-114.6,0.3c-9,0.3-17.9,0.9-26.7,2.9C64,38.2,52.5,44.8,43.9,56.1
		c-6.8,8.9-10.3,19.1-11.6,30c-1.1,9.1-1.8,18.3-2,27.5c-0.7,38.4-0.9,76.8,0.3,115.1c0.2,7.8,0.7,15.7,2.3,23.4
		c1.9,9.5,5.1,18.5,11.1,26.3c10.3,13.5,24.4,20,40.8,22.5c10.1,1.5,20.2,1.8,30.3,1.9C131.9,303.1,148.7,303.2,171.1,303.4z"/>
	<path class="st0" d="M165.7,82.2c46.9,0,85.2,38.2,85.2,85.2s-38.3,85.2-85.2,85.2c-46.9-0.1-85.1-38.2-85.1-85.1
		C80.5,120.4,118.7,82.2,165.7,82.2z M165.7,112.1c-30.5,0-55.2,24.7-55.3,55.2c0,30.5,24.7,55.3,55.2,55.3
		c30.5,0.1,55.4-24.8,55.4-55.3S196.2,112.1,165.7,112.1z"/>
	<path class="st0" d="M254.2,59c11,0,19.8,8.8,19.8,19.8s-8.8,19.9-19.8,19.9c-11,0-20-8.9-19.9-19.9C234.4,67.8,243.2,59,254.2,59z
		"/>
</g>
</svg>
