<?xml version="1.0" encoding="utf-8"?>
<!-- Generator: Adobe Illustrator 22.0.0, SVG Export Plug-In . SVG Version: 6.00 Build 0)  -->
<svg version="1.1" id="Layer_1" xmlns="http://www.w3.org/2000/svg" xmlns:xlink="http://www.w3.org/1999/xlink" x="0px" y="0px"
	 viewBox="0 0 1000 1000" style="enable-background:new 0 0 1000 1000;" xml:space="preserve">
<style type="text/css">
	.st0{fill:#B0E0E6;}
	.st1{fill:#231F20;}
</style>
<rect x="-5336.5" y="-114.1" class="st0" width="600" height="600"/>
<g>
	<path d="M-1482.1,620l20.7,17.2l-4.5,4.8h-112.5v34.1h66.6l13.3-13.8l26.5,20.1c1.6,1.1,2.4,2.6,2.4,4.3c0,0.9-1.3,1.7-3.8,2.4
		l-6.2,1.4c-6.3,20-13.9,36-22.9,48.2c12.7,4.1,27.5,7.3,44.2,9.6v5.2c-6.9,4.1-11.5,15-13.8,32.7c-22.3-7.2-40-16.1-53.2-26.5
		c-18.2,11.4-43.3,19.4-75.2,24.1l-0.7-4.5c26.3-8.5,46.2-20.1,59.7-34.8c0.2-0.5,0.4-0.7,0.5-0.9c-11.4-14.8-19.6-35.6-24.8-62.5
		h-12.7v18.2c-0.1,16-2.9,30.6-8.4,44.1c-6.3,15-16.9,28.8-31.8,41.3l-2.8-2.4c5-9.3,8.8-20.3,11.4-32.9c2.2-11.5,3.3-28.2,3.4-50.1
		v-75l28.9,12.7h81.2L-1482.1,620z M-1561.7,681.3c4.2,15.6,12.6,28.9,25,39.8c2.4,2.3,5.2,4.2,8.3,5.9c6.7-12,12.3-27.3,16.9-45.6
		L-1561.7,681.3L-1561.7,681.3z"/>
</g>
<g>
	<path d="M-1474.5,818l16.9,13.4l-3.1,4.8h-49.9v12.7h11.4l12.7-10l19.3,12.9c1.8,1.4,2.8,2.7,2.8,4s-2.5,2.5-7.6,3.8v13.3l11.4,8.8
		l-3.1,5.2h-19.6l16.9,10.7c1.8,1.5,2.8,2.8,2.8,3.8s-2.5,2.3-7.6,3.8V929l-14.8,1.9l15,9.1c1.9,1.3,2.9,2.4,2.9,3.4
		c0,1.1-0.7,2-2.1,2.4l-3.8,0.7c-4.2,3.6-8.7,6.7-13.4,9.5c8.4,1,17.6,1.7,27.5,1.9v2.1c-5.5,4.2-8.9,12.4-10.3,24.4
		c-21.9-2.8-38.2-7.1-48.7-12.9c-14.5,4.8-33.7,8.9-57.7,12.2l-0.7-2.4c19.8-7,34.9-13.4,45.3-19.3c-3.1-3.6-5.9-7.5-8.4-11.9
		c-8.6,5.7-18.7,10.3-30.3,13.6l-1.4-2.8c7.2-5.2,12.9-10.5,16.9-16c2.8-3.6,5.3-8,7.7-13.4l-12.6,1.9v-33.9
		c-6.9,2.5-14,4.4-21.3,5.7l-0.7-1.4c5.9-3.4,11.1-8,15.7-13.6c3.3-3.2,7.2-8.5,11.7-16h-30.5v3.6l15.3,3.3c1.9,0.5,2.9,1.5,2.9,3.1
		c0,1.4-1.7,2.6-5.2,3.8c-6.8,5.5-13.2,9.9-19.3,13.3c-0.8,0.6-1.7,1-2.6,1.2l25.3,6.2c2.3,0.5,3.4,1.4,3.4,2.8
		c0,1.6-1.8,3.1-5.5,4.5c-3.7,3.6-7.2,6.5-10.7,8.9l2.8,0.5c1.8,0.5,2.8,1.1,2.8,1.9c0,1.4-1.3,2.6-3.8,3.8V982l-26.5,2.4v-44.1
		c-4.2,2.4-8.6,4.5-13.1,6.2l-2.1-1c6.1-6.5,11.2-13.4,15.3-20.5c3-4.9,5.9-11.9,8.8-21c-7,3.6-14.6,6.8-22.7,9.8l-1.7-1.7
		c6-5.5,11.1-11.2,15.5-17.2c2.8-3.8,5.3-8.8,7.7-15l-13.9,1.9v-41.7l26.9,8.9h11v-12.7h-45.4l-1.7-4.8h135.3L-1474.5,818z
		 M-1585.3,869.6h10.7v-16.2h-10.7V869.6z M-1536.4,849v-12.7h-11.7V849H-1536.4z M-1548.1,869.6h11.7v-16.2h-11.7V869.6z
		 M-1497.9,894.4l10.2-7.6h-50.1c-2.2,1.6-4.4,3.2-6.7,4.6l9.1,2.9L-1497.9,894.4L-1497.9,894.4z M-1531.5,881.7h42.9l5.9-6.5
		l-16.5,2.8v-3.8h-36.3l6.9,1c1.7,0.6,2.6,1.5,2.6,2.8c0,1.1-1.5,2.2-4.5,3.1C-1531.1,881.4-1531.3,881.6-1531.5,881.7z
		 M-1534.4,907.5h36.5v-8.3h-36.5V907.5z M-1534.4,921.3h36.5V912h-36.5V921.3z M-1533.7,944.3c5.5,3.3,11.2,5.8,17.2,7.4
		c0.3,0.1,0.6,0.2,0.7,0.2c4.9-3.7,9.6-7.6,14.1-11.7h-28.2C-1531.2,941.8-1532.4,943.2-1533.7,944.3z M-1498.1,935.7l7.4-4.5
		l-7.2,0.7v-6.2h-20.3c-2.4,3.7-4.9,7-7.4,10H-1498.1L-1498.1,935.7z M-1510.6,869.6h11.4v-16.2h-11.4V869.6z"/>
</g>
<g>
	<path d="M-1409.7,829l32.5,8.4c2.6,0.6,4,1.5,4,2.9c0,1.8-2.3,3.4-6.9,4.8c-8.3,17.9-17.3,32-27,42.3c-1.7,1.8-3.7,3.6-5.9,5.2
		h69.5l14.3-12.7c-7.6-13.1-11.9-26.7-12.9-41h-27.4l-1.7-4.5h23.9l9.8-12.4l17.6,11.7c2.1,1.8,3.2,3.3,3.4,4.5
		c-0.2,1.8-1.4,3.1-3.4,3.8l-12.4,3.1c13.1,12.6,29.8,22.4,50.3,29.3v4.8c-9.3,8.8-14.9,19.5-16.9,32c-4-2.8-7.6-5.4-10.8-7.9
		l-1.9,0.7c0,17.9-1.1,34.7-3.3,50.3c-2.3,12-5.7,19.7-10.2,23.1c-5.3,3.4-15,5.2-29.3,5.2c0.2-8.4-1.1-13.9-4.1-16.5
		c-3.4-2.9-8.9-4.7-16.5-5.5v-5.2h28.6c3.2-13.3,4.9-32.6,5.2-57.8h-31.3c-0.8,24.4-5.1,41.9-12.7,52.3
		c-10.1,14.1-29.4,25.7-57.8,34.8l-1.4-3.8c16.6-10.2,27.9-20.9,33.7-32c5.2-10.7,7.8-27.8,7.9-51.3h-15.5
		c-7.8,6.1-16.3,11.4-25.5,15.8l-1.7-2.1c9.1-10.8,16.6-22.5,22.5-35.1C-1417.6,864.2-1413.1,848.5-1409.7,829z"/>
</g>
<path d="M-1247.7,882.3h3.8c3.2,18.8,4.8,35.3,4.8,49.6c0,7.7-1.4,13.3-4.1,16.9c-3.9,4.4-8.7,6.5-14.5,6.5c-5.2,0-9.2-1.3-12.2-4
	c-2.9-2.9-4.3-6.1-4.3-9.8c0-9.9,4.4-18.6,13.1-26.2C-1253.4,908.2-1248.9,897.2-1247.7,882.3z"/>
<path d="M-1230.1,867.1l29.6,2.4c3.7,0.5,5.5,1.7,5.5,3.8c0,1.7-1.8,3.8-5.5,6.2v66.8c0,3,1.5,4.5,4.5,4.5h28.9c2.4,0,4.4-1.1,6-3.4
	c1.1-1.9,2.9-9.2,5.3-21.7h4.8c0,11,1,18.1,2.9,21.2c1.4,2.8,4.2,4.9,8.4,6.4c-1.5,11.2-3.7,18.1-6.7,20.7
	c-3.9,4.4-8.3,6.5-13.3,6.5h-57.5c-3.2,0-6.5-1.8-9.8-5.3c-2.2-3.7-3.3-7.5-3.3-11.5L-1230.1,867.1L-1230.1,867.1z"/>
<path d="M-1221.8,823.8c22.9,4.7,42,12.7,49.1,18c7.3,5.3,11,11,11,17c0,4.6-1.7,8.8-5.2,12.7c-3.8,4.1-7.3,6.2-10.7,6.2
	c-8.7,0-14.7-5.9-18.1-17.7c-4.2-12-16.3-25.3-28.3-33.8L-1221.8,823.8z"/>
<path d="M-1156.5,878.5c21,9.9,34.3,19.5,41,28.1c14.3,18.5,6.8,33.2,3.1,37.7c-3.1,3.7-7.1,5.2-11.4,5.2c-4.5,0-8.6-2.2-12.4-6.5
	c-3.7-3.7-5.9-12-6.7-25.1c-1.7-13.7-7.1-25.5-16-35.5L-1156.5,878.5z"/>
<g>
	<path d="M-1050.1,963.9c0,7-2.4,12.9-7.2,17.7c-4.8,4.8-10.6,7.2-17.2,7.2c-6.8,0-12.5-2.4-17.2-7.2c-4.8-4.8-7.2-10.7-7.2-17.7
		c0-6.7,2.4-12.4,7.2-17.2c4.7-4.8,10.4-7.2,17.2-7.2c6.7,0,12.4,2.4,17.2,7.2S-1050.1,957.2-1050.1,963.9z M-1062,963.9
		c0-3.4-1.3-6.3-4-8.6c-2.3-2.6-5.2-4-8.6-4c-3.7,0-6.6,1.3-8.8,4c-2.6,2.3-4,5.2-4,8.6c0,3.6,1.3,6.5,4,8.8c2.2,2.6,5.1,4,8.8,4
		c3.4,0,6.3-1.3,8.6-4C-1063.3,970.4-1062,967.4-1062,963.9z"/>
</g>
<path d="M-1550.4,1280.7c0,9.1-3.2,16.7-9.7,22.9c-6.1,5.9-13.8,8.9-22.9,8.9c-2.5,0-6.2-0.8-11.2-2.3c-5.3-1.8-8.8-2.6-10.7-2.6
	c-1.8,0-4.4,1.9-8.1,5.6l-5.1-39.8l4.3-1.2c2.1,9.2,5.3,16.9,9.5,23c5.7,7.7,12.6,11.5,20.6,11.5c4.4,0,7.9-1.9,10.5-5.6
	c2-3.1,3-6.8,3-11.3c0-7.6-4.1-15.8-12.2-24.7c-7.2-7.7-14.7-15.5-22.4-23.3c-8.1-9.6-12.2-19.1-12.2-28.3c0-8.2,3.1-14.8,9.4-19.7
	c5.6-4.5,12.5-6.7,20.9-6.7c2.6,0,6,0.8,10,2.5c4.2,1.9,6.6,2.8,7.4,2.8c2.4,0,5.3-2.1,8.5-6.4l6.6,37l-4.3,1
	c-2.6-9.2-6.9-16.9-12.8-23.2c-5.5-5.6-10.5-8.4-15-8.4c-8.1,0-12.2,4.8-12.2,14.3c0,5.3,4.2,12.2,12.5,20.9
	c5.4,5.3,13,13.1,22.9,23.5C-1554.6,1260.1-1550.4,1270.1-1550.4,1280.7z"/>
<path d="M-1464.1,1221l-2.8,1c-10.4-19.1-17.5-28.6-21.2-28.6c-1.3,0-2,3.1-2,9.2v92.9c0,6.7,4.7,10,14,10v4.4h-51.8v-4.4
	c9.3,0,14-3.3,14-10v-92.4c0-6.5-0.7-9.7-2-9.7c-3.7,0-10.8,9.5-21.2,28.6l-2.8-0.8l5.4-33.2h64.9L-1464.1,1221z"/>
<path d="M-1370.3,1192.6c-6.5,0-9.7,3-9.7,8.9v82.4c0,19.1-10.1,28.6-30.2,28.6c-21.6,0-32.4-10-32.4-30.1v-79.9
	c0-6.6-2.9-9.9-8.7-9.9v-4.6h42.1v4.6c-6.2,0-9.4,3.3-9.4,10v81.1c0,14.6,5.1,21.9,15.3,21.9c5.5,0,9.9-1.9,13.2-5.8
	c3.3-3.7,4.9-8.3,4.9-13.8v-84.5c0-5.9-3.2-8.9-9.7-8.9v-4.6h24.7L-1370.3,1192.6L-1370.3,1192.6z"/>
<path d="M-1282.2,1249.6c0,40.3-12.4,60.5-37.2,60.5h-35.7v-4.4c5.2,0.1,7.7-3.7,7.7-11.5v-90.9c0-3.5-0.3-6-1-7.6
	c-1-2.1-3.2-3.1-6.6-3v-4.6h33.9C-1295.2,1188.1-1282.2,1208.6-1282.2,1249.6z M-1306.2,1249.9c0-22.2-1-37.3-3.1-45.2
	c-1.6-8-4.6-12-8.9-12c-3.7,0-5.6,3.6-5.6,10.7v90.8c0,7.7,1.7,11.5,5.1,11.5C-1310.4,1305.7-1306.2,1287.1-1306.2,1249.9z"/>
<path d="M-1223.9,1310.1h-46.9v-4.6h2c3.1,0,5.5-0.8,7.4-2.5c1.8-2.1,2.6-4.5,2.6-7.4v-93.2c0-4.2-1-7-3.1-8.4
	c-1.6-1-4.6-1.5-8.9-1.5v-4.6h46.9v4.6c-4.3,0-7.2,0.5-8.9,1.5c-2.1,1.5-3.1,4.4-3.1,8.6v92.9c0,3.9,1,6.7,3.1,8.4
	c1.8,1.1,4.7,1.6,8.9,1.6V1310.1z"/>
<path d="M-1141.9,1249.8c0,15.7-2,28.9-6.1,39.8c-5.6,15.3-14.9,23-28,23c-13.2,0-22.5-7.7-28.1-23c-4.1-10.9-6.1-24.1-6.1-39.8
	c0-15.6,2-28.8,6.1-39.6c5.6-15.5,15-23.2,28.1-23.2c13,0,22.4,7.7,28,23.2C-1143.9,1221-1141.9,1234.2-1141.9,1249.8z
	 M-1165.2,1249.8c0-38-3.6-57.1-10.7-57.1c-6.8,0-10.2,19-10.2,57.1c0,38,3.4,57,10.2,57
	C-1168.8,1306.8-1165.2,1287.8-1165.2,1249.8z"/>
<path d="M-1049.7,1293.7c0,5.2-1.9,9.5-5.6,13.2c-3.7,3.8-8.2,5.8-13.3,5.8c-5.2,0-9.6-1.9-13.3-5.8c-3.4-3.6-5.1-8-5.1-13.2
	s1.7-9.5,5.1-13.2c3.7-3.5,8.2-5.3,13.3-5.3c5.2,0,9.6,1.8,13.3,5.3C-1051.5,1284.1-1049.7,1288.5-1049.7,1293.7z"/>
<path d="M-1540.4,1056.9c0,21.3-12.6,31.9-37.8,31.9h-4.3v41.1c0,6.8,3.2,10.2,9.7,10.2v4.6h-42.1v-4.6c6,0,9-3.3,9-10V1037
	c0-6.7-3-10-9-9.9v-4.6h38C-1552.5,1022.5-1540.4,1034-1540.4,1056.9z M-1564.5,1057.7c0-6.8-0.5-12.8-1.6-17.9
	c-2.1-8.7-5.4-13-10-13c-4.2,0-6.2,3.5-6.2,10.4v46.9c7.2,0,12.1-2.7,14.6-8.2C-1565.6,1071.9-1564.5,1065.8-1564.5,1057.7z"/>
<path d="M-1459.5,1111.3l-6.6,33.4h-66v-4.6c6.9,0,10.4-3.3,10.4-9.9V1037c0-6.6-3.7-9.9-11.2-9.9v-4.6h46.9v4.6
	c-7.9,0-11.8,3.3-11.8,10v92.9c0,6.7,3.3,10,9.9,10c6,0,9.8-3.5,15-10.4c3.8-5.4,7.1-11.7,9.9-19.1L-1459.5,1111.3z"/>
<path d="M-1370.2,1144.7h-41.6v-4.6c5.6,0,8.4-1.6,8.4-4.9c0-1-0.6-4.2-1.8-9.5l-6.2-25.5h-20.4l-5.6,28.8c-0.6,3-0.8,5.1-0.8,6.4
	c0,1.8,1.5,3.1,4.4,3.9c1.9,0.5,3.9,0.8,6.2,0.8v4.6h-23.8v-4.6c4.6,0,7.7-3.6,9.4-10.9l18.9-101.4l17.3-7.4l27.3,111.1
	c0.4,2,1.4,3.9,2.8,5.8c1.5,1.9,3.4,2.8,5.6,2.8L-1370.2,1144.7L-1370.2,1144.7z M-1412.5,1095.9l-10.5-42.1l-8.1,42.1H-1412.5z"/>
<path d="M-1297.1,1107.9c-3.4,26.2-13.9,39.3-31.6,39.3c-11.6,0-20.9-5.8-27.9-17.3c-7.2-11.6-10.9-26.6-10.9-44.9
	c0-15.9,2.4-29.5,7.1-40.8c6.5-15.1,16.7-22.7,30.7-22.7c2.8,0,6.5,0.8,10.9,2.3c4.4,1.9,6.8,2.8,7.2,2.8c1.5,0,4.3-2,8.2-5.9
	l2.3,40.1l-3.6,0.5c-6-22.8-14.2-34.2-24.7-34.2c-8.9,0-13.3,19.2-13.3,57.5c0,12.1,0.8,22.7,2.5,31.9c2.7,15.6,7.7,23.3,15,23.3
	s12.9-3.9,16.9-11.7c3.3-5.7,5.5-12.7,6.6-21L-1297.1,1107.9z"/>
<path d="M-1206.3,1111.1l-7.7,33.5h-69.5v-4.6c5.3,0,7.9-3.8,7.9-11.3v-90.1c0-7.7-2.6-11.5-7.9-11.5v-4.6h68.2l5.4,32.4l-3.3,0.7
	c-8.2-19-18.2-28.4-30.1-28.4c-2.7,0-5,1-6.7,3.1c-1.4,2.5-2.1,5.3-2.1,8.4v38.3h7.1c10.5,0,15.8-6.7,15.8-20.1h4.9v45.4h-4.9
	c0-13.9-5.3-20.9-15.9-20.9h-6.9v47.3c0,3.1,0.8,5.8,2.3,8.2c1.8,2.1,4.1,3.1,6.9,3.1h4.8c9.8,0,19-9.9,27.8-29.6L-1206.3,1111.1z"
	/>
<path d="M-1120.1,1110.8c0,10.5-3,18.7-9,24.5c-6,6.1-14.5,9.2-25.5,9.2h-39.5v-4.4c4.8,0,7.2-3.9,7.2-11.8v-90.6
	c0-7-2.5-10.5-7.4-10.4v-4.6h37c9.8,0,17.6,2.3,23.7,6.9c6.9,5,10.4,12.4,10.4,22c0,14.4-6.8,23.4-20.4,27.1
	C-1127.9,1083.8-1120.1,1094.5-1120.1,1110.8z M-1147.4,1052.6c0-16.9-3.5-25.3-10.5-25.3c-3.5,0-5.3,3.3-5.3,10v39.6
	C-1152.6,1077-1147.4,1068.8-1147.4,1052.6z M-1144.9,1111.6c0-9.1-0.9-15.8-2.8-20.2c-2.6-6.7-7.8-10-15.5-10v46.9
	c0,7.9,2.1,11.8,6.4,11.8C-1148.8,1140.1-1144.9,1130.6-1144.9,1111.6z"/>
<path d="M-1040,1084.4c0,15.7-2,28.9-6.1,39.8c-5.6,15.3-14.9,23-27.9,23c-13.2,0-22.5-7.7-28.1-23c-4.1-10.9-6.1-24.1-6.1-39.8
	c0-15.6,2-28.8,6.1-39.6c5.6-15.5,15-23.2,28.1-23.2c13,0,22.4,7.7,27.9,23.2C-1042,1055.6-1040,1068.8-1040,1084.4z
	 M-1063.3,1084.4c0-38-3.6-57-10.7-57c-6.8,0-10.2,19-10.2,57s3.4,57,10.2,57C-1066.9,1141.4-1063.3,1122.4-1063.3,1084.4z"/>
<g>
	<path class="st1" d="M218.8,213.2l20.7,17.2l-4.5,4.8H122.4v34.1H189l13.3-13.8l26.5,20.1c1.6,1.1,2.4,2.6,2.4,4.3
		c0,0.9-1.3,1.7-3.8,2.4l-6.2,1.4c-6.3,20-13.9,36-22.9,48.2c12.7,4.1,27.5,7.3,44.2,9.6v5.2c-6.9,4.1-11.5,15-13.8,32.7
		c-22.3-7.2-40-16.1-53.2-26.5c-18.2,11.4-43.3,19.4-75.2,24.1l-0.7-4.5c26.3-8.5,46.2-20.1,59.7-34.8c0.2-0.5,0.4-0.7,0.5-0.9
		c-11.4-14.8-19.6-35.6-24.8-62.5h-12.7v18.2c-0.1,16-2.9,30.6-8.4,44.1c-6.3,15-16.9,28.8-31.8,41.3l-2.8-2.4
		c5-9.3,8.8-20.3,11.4-32.9c2.2-11.5,3.3-28.2,3.4-50.1v-75l28.9,12.7h81.2L218.8,213.2z M139.1,274.5c4.2,15.6,12.6,28.9,25,39.8
		c2.4,2.3,5.2,4.2,8.3,5.9c6.7-12,12.3-27.3,16.9-45.6L139.1,274.5L139.1,274.5z"/>
</g>
<g>
	<path class="st1" d="M226.4,411.2l16.9,13.4l-3.1,4.8h-49.9v12.7h11.3l12.7-10l19.3,12.9c1.8,1.4,2.8,2.7,2.8,4s-2.5,2.5-7.6,3.8
		v13.3l11.4,8.8l-3.1,5.2h-19.6l16.9,10.7c1.8,1.5,2.8,2.8,2.8,3.8s-2.5,2.3-7.6,3.8v23.8l-14.8,1.9l15,9.1c1.9,1.3,2.9,2.4,2.9,3.4
		c0,1.1-0.7,2-2.1,2.4l-3.8,0.7c-4.2,3.6-8.7,6.7-13.4,9.5c8.4,1,17.6,1.7,27.5,1.9v2.1c-5.5,4.2-8.9,12.4-10.3,24.4
		c-21.9-2.8-38.2-7.1-48.7-12.9c-14.5,4.8-33.7,8.9-57.7,12.2l-0.7-2.4c19.9-7,34.9-13.4,45.3-19.3c-3.1-3.6-5.9-7.5-8.4-11.9
		c-8.6,5.7-18.7,10.3-30.3,13.6l-1.4-2.8c7.2-5.2,12.9-10.5,16.9-16c2.8-3.6,5.3-8,7.7-13.4l-12.6,1.9v-33.9
		c-6.9,2.5-14,4.4-21.3,5.7l-0.7-1.4c5.9-3.4,11.1-8,15.7-13.6c3.3-3.2,7.2-8.5,11.7-16h-30.5v3.6l15.3,3.3c1.9,0.5,2.9,1.5,2.9,3.1
		c0,1.4-1.7,2.6-5.2,3.8c-6.8,5.5-13.2,9.9-19.3,13.3c-0.8,0.6-1.7,1-2.6,1.2l25.3,6.2c2.3,0.5,3.4,1.4,3.4,2.8
		c0,1.6-1.8,3.1-5.5,4.5c-3.7,3.6-7.2,6.5-10.7,9l2.8,0.5c1.8,0.5,2.8,1.1,2.8,1.9c0,1.4-1.3,2.6-3.8,3.8v50.9l-26.5,2.4v-44.1
		c-4.2,2.4-8.6,4.5-13.1,6.2l-2.1-1c6.1-6.5,11.2-13.4,15.3-20.5c3-4.9,5.9-11.9,8.8-21c-7,3.6-14.6,6.8-22.7,9.8l-1.7-1.7
		c6-5.5,11.1-11.2,15.5-17.2c2.8-3.8,5.3-8.8,7.7-15l-13.9,1.7v-41.7l26.9,9h11v-12.7H80.8l-1.7-4.8h135.3L226.4,411.2z
		 M115.5,462.9h10.7v-16.2h-10.7C115.5,446.7,115.5,462.9,115.5,462.9z M164.4,442.2v-12.7h-11.7v12.7H164.4z M152.7,462.9h11.7
		v-16.2h-11.7V462.9z M203,487.7l10.2-7.6h-50.1c-2.2,1.6-4.4,3.2-6.7,4.6l9.1,2.9L203,487.7L203,487.7z M169.4,474.9h42.9l5.9-6.5
		l-16.5,2.8v-3.8h-36.3l6.9,1c1.7,0.6,2.6,1.5,2.6,2.8c0,1.1-1.5,2.2-4.5,3.1C169.8,474.6,169.5,474.8,169.4,474.9z M166.5,500.7
		H203v-8.3h-36.5V500.7z M166.5,514.5H203v-9.3h-36.5V514.5z M167.2,537.6c5.5,3.3,11.2,5.8,17.2,7.4c0.3,0.1,0.6,0.2,0.7,0.2
		c4.9-3.7,9.6-7.6,14.1-11.7H171C169.7,535,168.4,536.4,167.2,537.6z M202.8,529l7.4-4.5l-7.2,0.7V519h-20.3c-2.4,3.7-4.9,7-7.4,10
		H202.8L202.8,529z M190.2,462.9h11.4v-16.2h-11.4V462.9z"/>
</g>
<g>
	<path class="st1" d="M291.1,422.2l32.5,8.4c2.6,0.6,4,1.5,4,2.9c0,1.8-2.3,3.4-6.9,4.8c-8.3,17.9-17.3,32-27,42.3
		c-1.7,1.8-3.7,3.6-5.9,5.2h69.5l14.3-12.7c-7.6-13.1-11.9-26.7-12.9-41h-27.4l-1.7-4.5h24l9.8-12.4l17.6,11.7
		c2.1,1.8,3.2,3.3,3.4,4.5c-0.2,1.8-1.4,3.1-3.4,3.8l-12.4,3.1c13.1,12.6,29.8,22.4,50.3,29.3v4.8c-9.3,8.8-14.9,19.5-16.9,32
		c-4-2.8-7.6-5.4-10.8-7.9l-1.9,0.7c0,17.9-1.1,34.7-3.3,50.3c-2.3,12-5.7,19.7-10.2,23.1c-5.3,3.4-15,5.2-29.3,5.2
		c0.2-8.4-1.1-13.9-4.1-16.5c-3.4-2.9-8.9-4.7-16.5-5.5v-5.2h28.6c3.2-13.3,4.9-32.6,5.2-57.8h-31.3c-0.8,24.4-5.1,41.9-12.7,52.3
		c-10.1,14.1-29.4,25.7-57.8,34.8l-1.4-3.8c16.6-10.2,27.9-20.9,33.7-32c5.2-10.7,7.8-27.8,7.9-51.3h-15.5
		c-7.8,6.1-16.3,11.4-25.5,15.8l-1.7-2.1c9.1-10.8,16.6-22.5,22.5-35.1C283.3,457.4,287.7,441.7,291.1,422.2z"/>
</g>
<path class="st1" d="M453.2,475.5h3.8c3.2,18.8,4.8,35.3,4.8,49.6c0,7.7-1.4,13.3-4.1,16.9c-3.9,4.4-8.7,6.5-14.5,6.5
	c-5.2,0-9.2-1.3-12.2-4c-2.9-2.9-4.3-6.1-4.3-9.8c0-9.9,4.4-18.6,13.1-26.2C447.4,501.4,451.9,490.4,453.2,475.5z"/>
<path class="st1" d="M470.7,460.4l29.6,2.4c3.7,0.5,5.5,1.7,5.5,3.8c0,1.7-1.8,3.8-5.5,6.2v66.8c0,3,1.5,4.5,4.5,4.5h28.9
	c2.4,0,4.4-1.1,6-3.4c1.1-1.9,2.9-9.2,5.3-21.7h4.8c0,11,1,18.1,2.9,21.2c1.4,2.8,4.2,4.9,8.4,6.4c-1.5,11.2-3.7,18.1-6.7,20.7
	c-3.9,4.4-8.3,6.5-13.3,6.5h-57.5c-3.2,0-6.5-1.8-9.8-5.3c-2.2-3.7-3.3-7.5-3.3-11.5L470.7,460.4L470.7,460.4z"/>
<path class="st1" d="M479.1,417c22.9,4.7,42,12.7,49.1,18c7.3,5.3,11,11,11,17c0,4.6-1.7,8.8-5.2,12.7c-3.8,4.1-7.3,6.2-10.7,6.2
	c-8.7,0-14.7-5.9-18.1-17.7c-4.2-12-16.3-25.3-28.3-33.8L479.1,417z"/>
<path class="st1" d="M544.4,471.7c21,9.9,34.3,19.5,41,28.1c14.3,18.5,6.8,33.2,3.1,37.7c-3.1,3.7-7.1,5.2-11.4,5.2
	c-4.5,0-8.6-2.2-12.4-6.5c-3.7-3.7-5.9-12-6.7-25.1c-1.7-13.7-7.1-25.5-16-35.5L544.4,471.7z"/>
<g>
	<path class="st1" d="M650.7,557.1c0,7-2.4,12.9-7.2,17.7c-4.8,4.8-10.6,7.2-17.2,7.2c-6.8,0-12.5-2.4-17.2-7.2
		c-4.8-4.8-7.2-10.7-7.2-17.7c0-6.7,2.4-12.4,7.2-17.2c4.7-4.8,10.4-7.2,17.2-7.2c6.7,0,12.4,2.4,17.2,7.2S650.7,550.4,650.7,557.1z
		 M638.8,557.1c0-3.4-1.3-6.3-4-8.6c-2.3-2.6-5.2-4-8.6-4c-3.7,0-6.6,1.3-8.8,4c-2.6,2.3-4,5.2-4,8.6c0,3.6,1.3,6.5,4,8.8
		c2.2,2.6,5.1,4,8.8,4c3.4,0,6.3-1.3,8.6-4C637.5,563.6,638.8,560.7,638.8,557.1z"/>
</g>
<path class="st1" d="M150.5,873.9c0,9.1-3.2,16.7-9.7,22.9c-6.1,5.9-13.8,8.9-22.9,8.9c-2.5,0-6.2-0.8-11.2-2.3
	c-5.3-1.8-8.8-2.6-10.7-2.6c-1.8,0-4.4,1.9-8.1,5.6l-5.1-39.8l4.3-1.2c2.1,9.2,5.3,16.9,9.5,23c5.7,7.7,12.6,11.5,20.6,11.5
	c4.4,0,7.9-1.9,10.5-5.6c2-3.1,3-6.8,3-11.3c0-7.6-4.1-15.8-12.2-24.7c-7.2-7.7-14.7-15.5-22.4-23.3c-8.1-9.6-12.2-19.1-12.2-28.3
	c0-8.2,3.1-14.8,9.4-19.7c5.6-4.5,12.5-6.7,20.9-6.7c2.6,0,6,0.8,10,2.5c4.2,1.9,6.6,2.8,7.4,2.8c2.4,0,5.3-2.1,8.5-6.4l6.6,37
	l-4.3,1c-2.6-9.2-6.9-16.9-12.8-23.2c-5.5-5.6-10.5-8.4-15-8.4c-8.1,0-12.2,4.8-12.2,14.3c0,5.3,4.2,12.2,12.5,20.9
	c5.4,5.3,13,13.1,22.9,23.5C146.3,853.4,150.5,863.3,150.5,873.9z"/>
<path class="st1" d="M236.7,814.2l-2.8,1c-10.4-19.1-17.5-28.6-21.2-28.6c-1.3,0-2,3.1-2,9.2v92.9c0,6.7,4.7,10,14,10v4.4h-51.8
	v-4.4c9.3,0,14-3.3,14-10v-92.4c0-6.5-0.7-9.7-2-9.7c-3.7,0-10.8,9.5-21.2,28.6l-2.8-0.8l5.4-33.2h64.9L236.7,814.2z"/>
<path class="st1" d="M330.5,785.8c-6.5,0-9.7,3-9.7,8.9v82.4c0,19.1-10.1,28.6-30.2,28.6c-21.6,0-32.4-10-32.4-30.1v-79.9
	c0-6.6-2.9-9.9-8.7-9.9v-4.6h42.1v4.6c-6.2,0-9.4,3.3-9.4,10v81.1c0,14.6,5.1,21.9,15.3,21.9c5.5,0,9.9-1.9,13.2-5.8
	c3.3-3.7,4.9-8.3,4.9-13.8v-84.5c0-5.9-3.2-8.9-9.7-8.9v-4.6h24.7v4.6H330.5z"/>
<path class="st1" d="M418.6,842.8c0,40.3-12.4,60.5-37.2,60.5h-35.7v-4.4c5.1,0.1,7.7-3.7,7.7-11.5v-90.9c0-3.5-0.3-6-1-7.6
	c-1-2.1-3.2-3.1-6.6-3v-4.6h33.9C405.7,781.4,418.6,801.8,418.6,842.8z M394.6,843.2c0-22.2-1-37.3-3.1-45.2c-1.6-8-4.6-12-8.9-12
	c-3.7,0-5.6,3.6-5.6,10.7v90.8c0,7.7,1.7,11.5,5.1,11.5C390.4,898.9,394.6,880.3,394.6,843.2z"/>
<path class="st1" d="M477,903.3h-46.9v-4.6h2c3.1,0,5.5-0.8,7.4-2.5c1.8-2.1,2.6-4.5,2.6-7.4v-93.2c0-4.2-1-7-3.1-8.4
	c-1.6-1-4.6-1.5-8.9-1.5v-4.6H477v4.6c-4.3,0-7.2,0.5-8.9,1.5c-2.1,1.5-3.1,4.4-3.1,8.6v92.9c0,3.9,1,6.7,3.1,8.4
	c1.8,1.1,4.7,1.6,8.9,1.6V903.3z"/>
<path class="st1" d="M559,843c0,15.7-2,28.9-6.1,39.8c-5.6,15.3-14.9,23-28,23c-13.2,0-22.5-7.7-28.1-23
	c-4.1-10.9-6.1-24.1-6.1-39.8c0-15.6,2-28.8,6.1-39.6c5.6-15.5,15-23.2,28.1-23.2c13,0,22.4,7.7,28,23.2
	C557,814.2,559,827.4,559,843z M535.6,843c0-38-3.6-57-10.7-57c-6.8,0-10.2,19-10.2,57s3.4,57,10.2,57
	C532.1,900.1,535.6,881,535.6,843z"/>
<path class="st1" d="M651.2,886.9c0,5.2-1.9,9.5-5.6,13.2c-3.7,3.8-8.2,5.8-13.3,5.8c-5.2,0-9.6-1.9-13.3-5.8
	c-3.4-3.6-5.1-8-5.1-13.2s1.7-9.5,5.1-13.2c3.7-3.5,8.2-5.3,13.3-5.3c5.2,0,9.6,1.8,13.3,5.3C649.3,877.4,651.2,881.7,651.2,886.9z"
	/>
<path class="st1" d="M160.5,650.1c0,21.3-12.6,31.9-37.8,31.9h-4.3v41.1c0,6.8,3.2,10.2,9.7,10.2v4.6H86v-4.6c6,0,9-3.3,9-10v-93.1
	c0-6.7-3-10-9-9.9v-4.6h38C148.3,615.8,160.5,627.2,160.5,650.1z M136.3,650.9c0-6.8-0.5-12.8-1.6-17.9c-2.1-8.7-5.4-13-10-13
	c-4.2,0-6.2,3.5-6.2,10.4v46.9c7.2,0,12.1-2.7,14.6-8.2C135.2,665.1,136.3,659.1,136.3,650.9z"/>
<path class="st1" d="M241.3,704.5l-6.6,33.4h-66v-4.6c6.9,0,10.4-3.3,10.4-9.9v-93.2c0-6.6-3.7-9.9-11.2-9.9v-4.6h46.9v4.6
	c-7.9,0-11.8,3.3-11.8,10v92.9c0,6.7,3.3,10,9.9,10c6,0,9.8-3.5,15-10.4c3.8-5.4,7.1-11.7,9.9-19.1L241.3,704.5z"/>
<path class="st1" d="M330.6,737.9H289v-4.6c5.6,0,8.4-1.6,8.4-4.9c0-1-0.6-4.2-1.8-9.5l-6.2-25.5H269l-5.6,28.8
	c-0.5,3-0.8,5.1-0.8,6.4c0,1.8,1.5,3.1,4.4,3.9c1.9,0.5,3.9,0.8,6.2,0.8v4.6h-23.8v-4.6c4.6,0,7.7-3.6,9.4-10.9L277.7,621l17.3-7.4
	l27.3,111.1c0.4,2,1.4,3.9,2.8,5.8c1.5,1.9,3.4,2.8,5.6,2.8L330.6,737.9L330.6,737.9z M288.4,689.1L277.9,647l-8.1,42.1H288.4z"/>
<path class="st1" d="M403.8,701.1c-3.4,26.2-13.9,39.3-31.6,39.3c-11.6,0-20.9-5.8-27.9-17.3c-7.2-11.6-10.9-26.6-10.9-44.9
	c0-15.9,2.4-29.5,7.1-40.8c6.5-15.1,16.7-22.7,30.7-22.7c2.8,0,6.5,0.8,10.9,2.3c4.4,1.9,6.8,2.8,7.2,2.8c1.5,0,4.3-2,8.2-5.9
	l2.3,40.1l-3.6,0.5c-6-22.8-14.2-34.2-24.7-34.2c-8.9,0-13.3,19.2-13.3,57.5c0,12.1,0.8,22.7,2.5,31.9c2.7,15.6,7.7,23.3,15,23.3
	s12.9-3.9,16.9-11.7c3.3-5.7,5.5-12.7,6.6-21L403.8,701.1z"/>
<path class="st1" d="M494.6,704.4l-7.7,33.5h-69.5v-4.6c5.3,0,7.9-3.8,7.9-11.3v-90.1c0-7.7-2.6-11.5-7.9-11.5v-4.6h68.2l5.4,32.4
	l-3.3,0.7c-8.2-19-18.2-28.4-30.1-28.4c-2.7,0-5,1-6.7,3.1c-1.4,2.5-2.1,5.3-2.1,8.4v38.3h7.1c10.5,0,15.8-6.7,15.8-20.1h4.9v45.4
	h-5c0-13.9-5.3-20.9-15.9-20.9h-6.9V722c0,3.1,0.8,5.8,2.3,8.2c1.8,2.1,4.1,3.1,6.9,3.1h4.8c9.8,0,19-9.9,27.8-29.6L494.6,704.4z"/>
<path class="st1" d="M580.8,704c0,10.5-3,18.7-9,24.5c-6,6.1-14.5,9.2-25.5,9.2h-39.5v-4.4c4.8,0,7.2-3.9,7.2-11.8v-90.6
	c0-7-2.5-10.5-7.4-10.4v-4.6h37c9.8,0,17.6,2.3,23.7,6.9c6.9,5,10.4,12.4,10.4,22c0,14.4-6.8,23.4-20.4,27.1
	C572.9,677,580.8,687.7,580.8,704z M553.5,645.8c0-16.9-3.5-25.3-10.5-25.3c-3.5,0-5.3,3.3-5.3,10v39.6
	C548.2,670.2,553.5,662.1,553.5,645.8z M555.9,704.9c0-9.1-0.9-15.8-2.8-20.2c-2.6-6.7-7.8-10-15.5-10v46.9c0,7.9,2.1,11.8,6.4,11.8
	C552,733.3,555.9,723.8,555.9,704.9z"/>
<path class="st1" d="M660.9,677.6c0,15.7-2,28.9-6.1,39.8c-5.6,15.3-14.9,23-27.9,23c-13.2,0-22.5-7.7-28.1-23
	c-4.1-10.9-6.1-24.1-6.1-39.8c0-15.6,2-28.8,6.1-39.6c5.6-15.5,15-23.2,28.1-23.2c13,0,22.4,7.7,27.9,23.2
	C658.9,648.8,660.9,662,660.9,677.6z M637.5,677.6c0-38-3.6-57-10.7-57c-6.8,0-10.2,19-10.2,57s3.4,57,10.2,57
	C634,734.6,637.5,715.6,637.5,677.6z"/>
</svg>
