<?xml version="1.0" encoding="utf-8"?>
<!-- Generator: Adobe Illustrator 22.0.0, SVG Export Plug-In . SVG Version: 6.00 Build 0)  -->
<svg version="1.1" id="Layer_1" xmlns="http://www.w3.org/2000/svg" xmlns:xlink="http://www.w3.org/1999/xlink" x="0px" y="0px"
	 viewBox="0 0 765.4 765.4" style="enable-background:new 0 0 765.4 765.4;" xml:space="preserve">
<style type="text/css">
	.st0{fill:#B0E0E6;}
	.st1{fill:#FFFFFF;}
</style>
<rect x="-5423.4" y="-252.3" class="st0" width="600" height="600"/>
<g>
	<path d="M-1569,481.8l20.7,17.2l-4.5,4.8h-112.5v34.1h66.6l13.3-13.8l26.5,20.1c1.6,1.1,2.4,2.6,2.4,4.3c0,0.9-1.3,1.7-3.8,2.4
		l-6.2,1.4c-6.3,20-13.9,36-22.9,48.2c12.7,4.1,27.5,7.3,44.2,9.6v5.2c-6.9,4.1-11.5,15-13.8,32.7c-22.3-7.2-40-16.1-53.2-26.5
		c-18.2,11.4-43.3,19.4-75.2,24.1l-0.7-4.5c26.3-8.5,46.2-20.1,59.7-34.8c0.2-0.5,0.4-0.7,0.5-0.9c-11.4-14.8-19.6-35.6-24.8-62.5
		h-12.7v18.2c-0.1,16-2.9,30.6-8.4,44.1c-6.3,15-16.9,28.8-31.8,41.3l-2.8-2.4c5-9.3,8.8-20.3,11.4-32.9c2.2-11.5,3.3-28.2,3.4-50.1
		v-75l28.9,12.7h81.2L-1569,481.8z M-1648.6,543.1c4.2,15.6,12.6,28.9,25,39.8c2.4,2.3,5.2,4.2,8.3,5.9c6.7-12,12.3-27.3,16.9-45.6
		L-1648.6,543.1L-1648.6,543.1z"/>
</g>
<g>
	<path d="M-1561.4,679.8l16.9,13.4l-3.1,4.8h-49.9v12.7h11.4l12.7-10l19.3,12.9c1.8,1.4,2.8,2.7,2.8,4s-2.5,2.5-7.6,3.8v13.3
		l11.4,8.8l-3.1,5.2h-19.6l16.9,10.7c1.8,1.5,2.8,2.8,2.8,3.8s-2.5,2.3-7.6,3.8v23.8l-14.8,1.9l15,9.1c1.9,1.3,2.9,2.4,2.9,3.4
		c0,1.1-0.7,2-2.1,2.4l-3.8,0.7c-4.2,3.6-8.7,6.7-13.4,9.5c8.4,1,17.6,1.7,27.5,1.9v2.1c-5.5,4.2-8.9,12.4-10.3,24.4
		c-21.9-2.8-38.2-7.1-48.7-12.9c-14.5,4.8-33.7,8.9-57.7,12.2l-0.7-2.4c19.8-7,34.9-13.4,45.3-19.3c-3.1-3.6-5.9-7.5-8.4-11.9
		c-8.6,5.7-18.7,10.3-30.3,13.6l-1.4-2.8c7.2-5.2,12.9-10.5,16.9-16c2.8-3.6,5.3-8,7.7-13.4l-12.6,1.9v-33.9
		c-6.9,2.5-14,4.4-21.3,5.7l-0.7-1.4c5.9-3.4,11.1-8,15.7-13.6c3.3-3.2,7.2-8.5,11.7-16h-30.5v3.6l15.3,3.3c1.9,0.5,2.9,1.5,2.9,3.1
		c0,1.4-1.7,2.6-5.2,3.8c-6.8,5.5-13.2,9.9-19.3,13.3c-0.8,0.6-1.7,1-2.6,1.2l25.3,6.2c2.3,0.5,3.4,1.4,3.4,2.8
		c0,1.6-1.8,3.1-5.5,4.5c-3.7,3.6-7.2,6.5-10.7,8.9l2.8,0.5c1.8,0.5,2.8,1.1,2.8,1.9c0,1.4-1.3,2.6-3.8,3.8v50.9l-26.5,2.4v-44.1
		c-4.2,2.4-8.6,4.5-13.1,6.2l-2.1-1c6.1-6.5,11.2-13.4,15.3-20.5c3-4.9,5.9-11.9,8.8-21c-7,3.6-14.6,6.8-22.7,9.8l-1.7-1.7
		c6-5.5,11.1-11.2,15.5-17.2c2.8-3.8,5.3-8.8,7.7-15l-13.9,1.9v-41.7l26.9,8.9h11v-12.7h-45.4l-1.7-4.8h135.3L-1561.4,679.8z
		 M-1672.2,731.4h10.7v-16.2h-10.7V731.4z M-1623.3,710.8v-12.7h-11.7v12.7H-1623.3z M-1635,731.4h11.7v-16.2h-11.7V731.4z
		 M-1584.8,756.2l10.2-7.6h-50.1c-2.2,1.6-4.4,3.2-6.7,4.6l9.1,2.9L-1584.8,756.2L-1584.8,756.2z M-1618.4,743.5h42.9l5.9-6.5
		l-16.5,2.8V736h-36.3l6.9,1c1.7,0.6,2.6,1.5,2.6,2.8c0,1.1-1.5,2.2-4.5,3.1C-1618,743.2-1618.2,743.4-1618.4,743.5z M-1621.3,769.3
		h36.5V761h-36.5V769.3z M-1621.3,783.1h36.5v-9.3h-36.5V783.1z M-1620.6,806.1c5.5,3.3,11.2,5.8,17.2,7.4c0.3,0.1,0.6,0.2,0.7,0.2
		c4.9-3.7,9.6-7.6,14.1-11.7h-28.2C-1618.1,803.6-1619.3,805-1620.6,806.1z M-1585,797.5l7.4-4.5l-7.2,0.7v-6.2h-20.3
		c-2.4,3.7-4.9,7-7.4,10H-1585L-1585,797.5z M-1597.5,731.4h11.4v-16.2h-11.4V731.4z"/>
</g>
<g>
	<path d="M-1496.6,690.8l32.5,8.4c2.6,0.6,4,1.5,4,2.9c0,1.8-2.3,3.4-6.9,4.8c-8.3,17.9-17.3,32-27,42.3c-1.7,1.8-3.7,3.6-5.9,5.2
		h69.5l14.3-12.7c-7.6-13.1-11.9-26.7-12.9-41h-27.4l-1.7-4.5h23.9l9.8-12.4l17.6,11.7c2.1,1.8,3.2,3.3,3.4,4.5
		c-0.2,1.8-1.4,3.1-3.4,3.8l-12.4,3.1c13.1,12.6,29.8,22.4,50.3,29.3v4.8c-9.3,8.8-14.9,19.5-16.9,32c-4-2.8-7.6-5.4-10.8-7.9
		l-1.9,0.7c0,17.9-1.1,34.7-3.3,50.3c-2.3,12-5.7,19.7-10.2,23.1c-5.3,3.4-15,5.2-29.3,5.2c0.2-8.4-1.1-13.9-4.1-16.5
		c-3.4-2.9-8.9-4.7-16.5-5.5v-5.2h28.6c3.2-13.3,4.9-32.6,5.2-57.8h-31.3c-0.8,24.4-5.1,41.9-12.7,52.3
		c-10.1,14.1-29.4,25.7-57.8,34.8l-1.4-3.8c16.6-10.2,27.9-20.9,33.7-32c5.2-10.7,7.8-27.8,7.9-51.3h-15.5
		c-7.8,6.1-16.3,11.4-25.5,15.8l-1.7-2.1c9.1-10.8,16.6-22.5,22.5-35.1C-1504.5,726-1500,710.3-1496.6,690.8z"/>
</g>
<path d="M-1334.6,744.1h3.8c3.2,18.8,4.8,35.3,4.8,49.6c0,7.7-1.4,13.3-4.1,16.9c-3.9,4.4-8.7,6.5-14.5,6.5c-5.2,0-9.2-1.3-12.2-4
	c-2.9-2.9-4.3-6.1-4.3-9.8c0-9.9,4.4-18.6,13.1-26.2C-1340.3,770-1335.8,759-1334.6,744.1z"/>
<path d="M-1317,728.9l29.6,2.4c3.7,0.5,5.5,1.7,5.5,3.8c0,1.7-1.8,3.8-5.5,6.2v66.8c0,3,1.5,4.5,4.5,4.5h28.9c2.4,0,4.4-1.1,6-3.4
	c1.1-1.9,2.9-9.2,5.3-21.7h4.8c0,11,1,18.1,2.9,21.2c1.4,2.8,4.2,4.9,8.4,6.4c-1.5,11.2-3.7,18.1-6.7,20.7
	c-3.9,4.4-8.3,6.5-13.3,6.5h-57.5c-3.2,0-6.5-1.8-9.8-5.3c-2.2-3.7-3.3-7.5-3.3-11.5L-1317,728.9L-1317,728.9z"/>
<path d="M-1308.7,685.6c22.9,4.7,42,12.7,49.1,18c7.3,5.3,11,11,11,17c0,4.6-1.7,8.8-5.2,12.7c-3.8,4.1-7.3,6.2-10.7,6.2
	c-8.7,0-14.7-5.9-18.1-17.7c-4.2-12-16.3-25.3-28.3-33.8L-1308.7,685.6z"/>
<path d="M-1243.4,740.3c21,9.9,34.3,19.5,41,28.1c14.3,18.5,6.8,33.2,3.1,37.7c-3.1,3.7-7.1,5.2-11.4,5.2c-4.5,0-8.6-2.2-12.4-6.5
	c-3.7-3.7-5.9-12-6.7-25.1c-1.7-13.7-7.1-25.5-16-35.5L-1243.4,740.3z"/>
<g>
	<path d="M-1137,825.7c0,7-2.4,12.9-7.2,17.7c-4.8,4.8-10.6,7.2-17.2,7.2c-6.8,0-12.5-2.4-17.2-7.2c-4.8-4.8-7.2-10.7-7.2-17.7
		c0-6.7,2.4-12.4,7.2-17.2c4.7-4.8,10.4-7.2,17.2-7.2c6.7,0,12.4,2.4,17.2,7.2S-1137,819-1137,825.7z M-1148.9,825.7
		c0-3.4-1.3-6.3-4-8.6c-2.3-2.6-5.2-4-8.6-4c-3.7,0-6.6,1.3-8.8,4c-2.6,2.3-4,5.2-4,8.6c0,3.6,1.3,6.5,4,8.8c2.2,2.6,5.1,4,8.8,4
		c3.4,0,6.3-1.3,8.6-4C-1150.2,832.2-1148.9,829.2-1148.9,825.7z"/>
</g>
<path d="M-1637.3,1142.5c0,9.1-3.2,16.7-9.7,22.9c-6.1,5.9-13.8,8.9-22.9,8.9c-2.5,0-6.2-0.8-11.2-2.3c-5.3-1.8-8.8-2.6-10.7-2.6
	c-1.8,0-4.4,1.9-8.1,5.6l-5.1-39.8l4.3-1.2c2.1,9.2,5.3,16.9,9.5,23c5.7,7.7,12.6,11.5,20.6,11.5c4.4,0,7.9-1.9,10.5-5.6
	c2-3.1,3-6.8,3-11.3c0-7.6-4.1-15.8-12.2-24.7c-7.2-7.7-14.7-15.5-22.4-23.3c-8.1-9.6-12.2-19.1-12.2-28.3c0-8.2,3.1-14.8,9.4-19.7
	c5.6-4.5,12.5-6.7,20.9-6.7c2.6,0,6,0.8,10,2.5c4.2,1.9,6.6,2.8,7.4,2.8c2.4,0,5.3-2.1,8.5-6.4l6.6,37l-4.3,1
	c-2.6-9.2-6.9-16.9-12.8-23.2c-5.5-5.6-10.5-8.4-15-8.4c-8.1,0-12.2,4.8-12.2,14.3c0,5.3,4.2,12.2,12.5,20.9
	c5.4,5.3,13,13.1,22.9,23.5C-1641.5,1121.9-1637.3,1131.9-1637.3,1142.5z"/>
<path d="M-1551,1082.8l-2.8,1c-10.4-19.1-17.5-28.6-21.2-28.6c-1.3,0-2,3.1-2,9.2v92.9c0,6.7,4.7,10,14,10v4.4h-51.8v-4.4
	c9.3,0,14-3.3,14-10v-92.4c0-6.5-0.7-9.7-2-9.7c-3.7,0-10.8,9.5-21.2,28.6l-2.8-0.8l5.4-33.2h64.9L-1551,1082.8z"/>
<path d="M-1457.2,1054.4c-6.5,0-9.7,3-9.7,8.9v82.4c0,19.1-10.1,28.6-30.2,28.6c-21.6,0-32.4-10-32.4-30.1v-79.9
	c0-6.6-2.9-9.9-8.7-9.9v-4.6h42.1v4.6c-6.2,0-9.4,3.3-9.4,10v81.1c0,14.6,5.1,21.9,15.3,21.9c5.5,0,9.9-1.9,13.2-5.8
	c3.3-3.7,4.9-8.3,4.9-13.8v-84.5c0-5.9-3.2-8.9-9.7-8.9v-4.6h24.7L-1457.2,1054.4L-1457.2,1054.4z"/>
<path d="M-1369.1,1111.4c0,40.3-12.4,60.5-37.2,60.5h-35.7v-4.4c5.2,0.1,7.7-3.7,7.7-11.5v-90.9c0-3.5-0.3-6-1-7.6
	c-1-2.1-3.2-3.1-6.6-3v-4.6h33.9C-1382.1,1049.9-1369.1,1070.4-1369.1,1111.4z M-1393.1,1111.7c0-22.2-1-37.3-3.1-45.2
	c-1.6-8-4.6-12-8.9-12c-3.7,0-5.6,3.6-5.6,10.7v90.8c0,7.7,1.7,11.5,5.1,11.5C-1397.3,1167.5-1393.1,1148.9-1393.1,1111.7z"/>
<path d="M-1310.8,1171.9h-46.9v-4.6h2c3.1,0,5.5-0.8,7.4-2.5c1.8-2.1,2.6-4.5,2.6-7.4v-93.2c0-4.2-1-7-3.1-8.4
	c-1.6-1-4.6-1.5-8.9-1.5v-4.6h46.9v4.6c-4.3,0-7.2,0.5-8.9,1.5c-2.1,1.5-3.1,4.4-3.1,8.6v92.9c0,3.9,1,6.7,3.1,8.4
	c1.8,1.1,4.7,1.6,8.9,1.6V1171.9z"/>
<path d="M-1228.8,1111.6c0,15.7-2,28.9-6.1,39.8c-5.6,15.3-14.9,23-28,23c-13.2,0-22.5-7.7-28.1-23c-4.1-10.9-6.1-24.1-6.1-39.8
	c0-15.6,2-28.8,6.1-39.6c5.6-15.5,15-23.2,28.1-23.2c13,0,22.4,7.7,28,23.2C-1230.8,1082.8-1228.8,1096-1228.8,1111.6z
	 M-1252.1,1111.6c0-38-3.6-57.1-10.7-57.1c-6.8,0-10.2,19-10.2,57.1c0,38,3.4,57,10.2,57
	C-1255.7,1168.6-1252.1,1149.6-1252.1,1111.6z"/>
<path d="M-1136.6,1155.5c0,5.2-1.9,9.5-5.6,13.2c-3.7,3.8-8.2,5.8-13.3,5.8c-5.2,0-9.6-1.9-13.3-5.8c-3.4-3.6-5.1-8-5.1-13.2
	s1.7-9.5,5.1-13.2c3.7-3.5,8.2-5.3,13.3-5.3c5.2,0,9.6,1.8,13.3,5.3C-1138.4,1145.9-1136.6,1150.3-1136.6,1155.5z"/>
<path d="M-1627.3,918.7c0,21.3-12.6,31.9-37.8,31.9h-4.3v41.1c0,6.8,3.2,10.2,9.7,10.2v4.6h-42.1v-4.6c6,0,9-3.3,9-10v-93.1
	c0-6.7-3-10-9-9.9v-4.6h38C-1639.4,884.3-1627.3,895.8-1627.3,918.7z M-1651.4,919.5c0-6.8-0.5-12.8-1.6-17.9c-2.1-8.7-5.4-13-10-13
	c-4.2,0-6.2,3.5-6.2,10.4v46.9c7.2,0,12.1-2.7,14.6-8.2C-1652.5,933.7-1651.4,927.6-1651.4,919.5z"/>
<path d="M-1546.4,973.1l-6.6,33.4h-66v-4.6c6.9,0,10.4-3.3,10.4-9.9v-93.2c0-6.6-3.7-9.9-11.2-9.9v-4.6h46.9v4.6
	c-7.9,0-11.8,3.3-11.8,10v92.9c0,6.7,3.3,10,9.9,10c6,0,9.8-3.5,15-10.4c3.8-5.4,7.1-11.7,9.9-19.1L-1546.4,973.1z"/>
<path d="M-1457.1,1006.5h-41.6v-4.6c5.6,0,8.4-1.6,8.4-4.9c0-1-0.6-4.2-1.8-9.5l-6.2-25.5h-20.4l-5.6,28.8c-0.6,3-0.8,5.1-0.8,6.4
	c0,1.8,1.5,3.1,4.4,3.9c1.9,0.5,3.9,0.8,6.2,0.8v4.6h-23.8v-4.6c4.6,0,7.7-3.6,9.4-10.9l18.9-101.4l17.3-7.4l27.3,111.1
	c0.4,2,1.4,3.9,2.8,5.8c1.5,1.9,3.4,2.8,5.6,2.8L-1457.1,1006.5L-1457.1,1006.5z M-1499.4,957.7l-10.5-42.1l-8.1,42.1H-1499.4z"/>
<path d="M-1384,969.7c-3.4,26.2-13.9,39.3-31.6,39.3c-11.6,0-20.9-5.8-27.9-17.3c-7.2-11.6-10.9-26.6-10.9-44.9
	c0-15.9,2.4-29.5,7.1-40.8c6.5-15.1,16.7-22.7,30.7-22.7c2.8,0,6.5,0.8,10.9,2.3c4.4,1.9,6.8,2.8,7.2,2.8c1.5,0,4.3-2,8.2-5.9
	l2.3,40.1l-3.6,0.5c-6-22.8-14.2-34.2-24.7-34.2c-8.9,0-13.3,19.2-13.3,57.5c0,12.1,0.8,22.7,2.5,31.9c2.7,15.6,7.7,23.3,15,23.3
	s12.9-3.9,16.9-11.7c3.3-5.7,5.5-12.7,6.6-21L-1384,969.7z"/>
<path d="M-1293.2,972.9l-7.7,33.5h-69.5v-4.6c5.3,0,7.9-3.8,7.9-11.3v-90.1c0-7.7-2.6-11.5-7.9-11.5v-4.6h68.2l5.4,32.4l-3.3,0.7
	c-8.2-19-18.2-28.4-30.1-28.4c-2.7,0-5,1-6.7,3.1c-1.4,2.5-2.1,5.3-2.1,8.4v38.3h7.1c10.5,0,15.8-6.7,15.8-20.1h4.9v45.4h-4.9
	c0-13.9-5.3-20.9-15.9-20.9h-6.9v47.3c0,3.1,0.8,5.8,2.3,8.2c1.8,2.1,4.1,3.1,6.9,3.1h4.8c9.8,0,19-9.9,27.8-29.6L-1293.2,972.9z"/>
<path d="M-1207,972.6c0,10.5-3,18.7-9,24.5c-6,6.1-14.5,9.2-25.5,9.2h-39.5v-4.4c4.8,0,7.2-3.9,7.2-11.8v-90.6
	c0-7-2.5-10.5-7.4-10.4v-4.6h37c9.8,0,17.6,2.3,23.7,6.9c6.9,5,10.4,12.4,10.4,22c0,14.4-6.8,23.4-20.4,27.1
	C-1214.8,945.6-1207,956.3-1207,972.6z M-1234.3,914.4c0-16.9-3.5-25.3-10.5-25.3c-3.5,0-5.3,3.3-5.3,10v39.6
	C-1239.5,938.8-1234.3,930.6-1234.3,914.4z M-1231.8,973.4c0-9.1-0.9-15.8-2.8-20.2c-2.6-6.7-7.8-10-15.5-10v46.9
	c0,7.9,2.1,11.8,6.4,11.8C-1235.7,1001.9-1231.8,992.4-1231.8,973.4z"/>
<path d="M-1126.9,946.2c0,15.7-2,28.9-6.1,39.8c-5.6,15.3-14.9,23-27.9,23c-13.2,0-22.5-7.7-28.1-23c-4.1-10.9-6.1-24.1-6.1-39.8
	c0-15.6,2-28.8,6.1-39.6c5.6-15.5,15-23.2,28.1-23.2c13,0,22.4,7.7,27.9,23.2C-1128.9,917.4-1126.9,930.6-1126.9,946.2z
	 M-1150.2,946.2c0-38-3.6-57-10.7-57c-6.8,0-10.2,19-10.2,57s3.4,57,10.2,57C-1153.8,1003.2-1150.2,984.2-1150.2,946.2z"/>
<g>
	<path class="st1" d="M487.9,423.9h-13.2C463.6,489.1,458,546.3,458,596c0,26.7,4.9,46.2,14.2,58.6c13.5,15.3,30.2,22.6,50.3,22.6
		c18,0,31.9-4.5,42.3-13.9c10.1-10.1,14.9-21.2,14.9-34c0-34.4-15.3-64.5-45.5-90.9C508,513.7,492.4,475.6,487.9,423.9z"/>
	<path class="st1" d="M427.1,371.5l-102.7,8.3c-12.8,1.7-19.1,5.9-19.1,13.2c0,5.9,6.2,13.2,19.1,21.5v231.8
		c0,10.4-5.2,15.6-15.6,15.6H208.5c-8.3,0-15.3-3.8-20.8-11.8c-3.8-6.6-10.1-31.9-18.4-75.3h-16.7c0,38.2-3.5,62.8-10.1,73.6
		c-4.9,9.7-14.6,17-29.1,22.2c5.2,38.9,12.8,62.8,23.2,71.8c13.5,15.3,28.8,22.6,46.2,22.6h199.5c11.1,0,22.6-6.2,34-18.4
		c7.6-12.8,11.5-26,11.5-39.9L427.1,371.5L427.1,371.5z"/>
	<path class="st1" d="M398,220.9c-79.5,16.3-145.7,44.1-170.4,62.5c-25.3,18.4-38.2,38.2-38.2,59c0,16,5.9,30.5,18,44.1
		c13.2,14.2,25.3,21.5,37.1,21.5c30.2,0,51-20.5,62.8-61.4c14.6-41.6,56.6-87.8,98.2-117.3L398,220.9z"/>
	<path class="st1" d="M171.4,410.7c-72.9,34.4-119,67.7-142.3,97.5C-20.5,572.4,5.5,623.4,18.4,639C29.2,651.8,43,657,58,657
		c15.6,0,29.8-7.6,43-22.6c12.8-12.8,20.5-41.6,23.2-87.1c5.9-47.5,24.6-88.5,55.5-123.2L171.4,410.7z"/>
</g>
</svg>
