<?xml version="1.0" encoding="utf-8"?>
<!-- Generator: Adobe Illustrator 16.0.0, SVG Export Plug-In . SVG Version: 6.00 Build 0)  -->
<!DOCTYPE svg PUBLIC "-//W3C//DTD SVG 1.1//EN" "http://www.w3.org/Graphics/SVG/1.1/DTD/svg11.dtd">
<svg version="1.1" id="Layer_1" xmlns="http://www.w3.org/2000/svg" xmlns:xlink="http://www.w3.org/1999/xlink" x="0px" y="0px"
	 width="331.575px" height="333.031px" viewBox="0 0 331.575 333.031" enable-background="new 0 0 331.575 333.031"
	 xml:space="preserve">
<rect x="-1497.565" y="258.756" fill="none" stroke="#232121" stroke-width="24" stroke-miterlimit="10" width="477.047" height="309.032"/>
<polyline fill="none" stroke="#232121" stroke-width="24" stroke-miterlimit="10" points="-1019.705,258.756 -1258.635,497.685 
	-1497.563,258.757 "/>
<path fill="#FFFFFF" d="M-560,0v333.031h501.048V0H-560z M-99.11,24l-209.96,209.957L-519.027,24H-99.11z M-536,309.031V40.969
	l226.93,226.93L-82.952,41.783v267.248H-536z"/>
<path fill="#FFFFFF" d="M165.787,0C74.228,0,0,74.227,0,165.787c0,91.56,74.228,165.787,165.787,165.787
	c91.556,0,165.788-74.228,165.788-165.787C331.575,74.227,257.343,0,165.787,0z M208.674,107.034c0,0-13.158,0-20.352,0
	c-7.218,0-8.292,6.312-8.292,8.114c0,1.812-0.178,19.639-0.178,19.639h28.821l-3.594,31h-24.871v90.099h-37.847v-90.099h-17.653v-31
	h18.722c0,0,0-13.688,0-29.906c0-16.223,19.114-29.203,28.48-29.203c9.382,0,36.763,0,36.763,0V107.034z"/>
</svg>
