<?xml version="1.0" encoding="utf-8"?>
<!-- Generator: Adobe Illustrator 16.0.0, SVG Export Plug-In . SVG Version: 6.00 Build 0)  -->
<!DOCTYPE svg PUBLIC "-//W3C//DTD SVG 1.1//EN" "http://www.w3.org/Graphics/SVG/1.1/DTD/svg11.dtd">
<svg version="1.1" id="Layer_1" xmlns="http://www.w3.org/2000/svg" xmlns:xlink="http://www.w3.org/1999/xlink" x="0px" y="0px"
	 width="1008.771px" height="1098.222px" viewBox="0 0 1008.771 1098.222" enable-background="new 0 0 1008.771 1098.222"
	 xml:space="preserve">
<rect x="-5332.077" y="100" fill="#B0E0E6" width="600" height="600"/>
<g>
	<path d="M-1477.653,834.111l20.654,17.213l-4.475,4.819h-112.566v34.079h66.61l13.253-13.77l26.507,20.139
		c1.605,1.148,2.409,2.582,2.409,4.303c0,0.92-1.264,1.721-3.786,2.41l-6.196,1.377c-6.312,19.965-13.941,36.031-22.893,48.192
		c12.737,4.131,27.48,7.345,44.235,9.639v5.164c-6.885,4.131-11.476,15.031-13.77,32.703c-22.263-7.229-39.991-16.066-53.185-26.507
		c-18.245,11.36-43.318,19.391-75.217,24.097l-0.688-4.475c26.275-8.493,46.185-20.082,59.726-34.769
		c0.229-0.457,0.4-0.745,0.516-0.86c-11.359-14.803-19.621-35.629-24.785-62.479h-12.736v18.244
		c-0.115,15.951-2.926,30.638-8.434,44.062c-6.312,15.031-16.928,28.801-31.842,41.31l-2.754-2.41
		c5.047-9.294,8.834-20.254,11.359-32.875c2.178-11.473,3.326-28.168,3.442-50.087v-75.044l28.916,12.737h81.239L-1477.653,834.111z
		 M-1557.345,895.387c4.244,15.606,12.564,28.859,24.957,39.76c2.41,2.297,5.164,4.246,8.262,5.852
		c6.654-12.048,12.277-27.251,16.868-45.611H-1557.345z"/>
</g>
<g>
	<path d="M-1470.079,1032.111l16.867,13.426l-3.098,4.819h-49.916v12.737h11.36l12.737-9.983l19.277,12.909
		c1.834,1.377,2.754,2.697,2.754,3.959c0,1.264-2.525,2.524-7.573,3.786v13.253l11.36,8.778l-3.1,5.164h-19.621l16.868,10.671
		c1.834,1.493,2.753,2.754,2.753,3.787c0,1.032-2.524,2.297-7.572,3.786v23.753l-14.803,1.894l14.975,9.122
		c1.949,1.264,2.926,2.409,2.926,3.442c0,1.148-0.688,1.952-2.064,2.409l-3.787,0.688c-4.246,3.559-8.722,6.713-13.426,9.467
		c8.375,1.033,17.557,1.662,27.539,1.894v2.065c-5.508,4.244-8.949,12.393-10.326,24.441c-21.919-2.754-38.154-7.058-48.711-12.909
		c-14.457,4.819-33.679,8.891-57.66,12.221l-0.688-2.41c19.85-7,34.939-13.425,45.268-19.277c-3.099-3.558-5.912-7.514-8.435-11.876
		c-8.606,5.736-18.704,10.268-30.293,13.598l-1.377-2.754c7.229-5.164,12.851-10.5,16.868-16.008
		c2.754-3.555,5.336-8.03,7.745-13.425l-12.565,1.893v-33.907c-6.885,2.525-14,4.419-21.342,5.68l-0.689-1.377
		c5.853-3.442,11.072-7.974,15.664-13.598c3.326-3.211,7.229-8.547,11.703-16.007h-30.465v3.614l15.318,3.271
		c1.95,0.46,2.926,1.493,2.926,3.099c0,1.377-1.721,2.641-5.163,3.786c-6.771,5.508-13.196,9.927-19.277,13.254
		c-0.804,0.575-1.665,0.976-2.581,1.204l25.301,6.196c2.294,0.46,3.442,1.377,3.442,2.754c0,1.608-1.837,3.099-5.508,4.476
		c-3.673,3.558-7.229,6.54-10.671,8.95l2.754,0.517c1.834,0.46,2.754,1.092,2.754,1.893c0,1.377-1.264,2.642-3.787,3.787v50.947
		l-26.506,2.41v-44.063c-4.247,2.41-8.606,4.476-13.082,6.196l-2.064-1.032c6.08-6.541,11.188-13.366,15.318-20.482
		c2.982-4.932,5.908-11.933,8.777-20.998c-7,3.558-14.573,6.828-22.719,9.811l-1.722-1.722c5.965-5.508,11.128-11.244,15.491-17.212
		c2.754-3.786,5.336-8.778,7.745-14.975l-13.942,1.894v-41.652l26.852,8.95h11.016v-12.737h-45.439l-1.722-4.819h135.286
		L-1470.079,1032.111z M-1580.925,1083.748h10.672v-16.18h-10.672V1083.748z M-1532.043,1063.094v-12.737h-11.704v12.737H-1532.043z
		 M-1543.747,1083.748h11.704v-16.18h-11.704V1083.748z M-1493.488,1108.533l10.155-7.573h-50.087
		c-2.181,1.607-4.419,3.157-6.712,4.646l9.121,2.927H-1493.488z M-1527.052,1095.796h42.858l5.853-6.54l-16.524,2.754v-3.787
		h-36.317l6.885,1.033c1.722,0.575,2.582,1.492,2.582,2.754c0,1.148-1.492,2.181-4.475,3.098
		C-1526.65,1095.452-1526.938,1095.683-1527.052,1095.796z M-1529.978,1121.614h36.489v-8.262h-36.489V1121.614z
		 M-1529.978,1135.384h36.489v-9.295h-36.489V1135.384z M-1529.289,1158.447c5.508,3.33,11.245,5.796,17.212,7.401
		c0.344,0.116,0.573,0.172,0.688,0.172c4.933-3.671,9.639-7.573,14.114-11.704h-28.229
		C-1526.767,1155.925-1528.028,1157.302-1529.289,1158.447z M-1493.66,1149.842l7.401-4.476l-7.229,0.688v-6.196h-20.31
		c-2.41,3.674-4.879,7.001-7.401,9.983H-1493.66z M-1506.226,1083.748h11.36v-16.18h-11.36V1083.748z"/>
</g>
<g>
	<path d="M-1405.302,1043.062l32.531,8.434c2.638,0.575,3.958,1.549,3.958,2.926c0,1.837-2.296,3.442-6.885,4.819
		c-8.262,17.9-17.271,32.015-27.022,42.342c-1.721,1.837-3.674,3.558-5.852,5.163h69.535l14.286-12.736
		c-7.573-13.081-11.876-26.735-12.909-40.965h-27.367l-1.721-4.475h23.925l9.811-12.394l17.557,11.705
		c2.065,1.836,3.211,3.329,3.442,4.475c-0.231,1.837-1.377,3.099-3.442,3.787l-12.394,3.098
		c13.082,12.624,29.834,22.376,50.26,29.261v4.819c-9.295,8.837-14.918,19.509-16.867,32.014c-4.02-2.754-7.633-5.392-10.844-7.917
		l-1.894,0.688c0,17.9-1.093,34.655-3.271,50.259c-2.297,12.049-5.68,19.734-10.155,23.064c-5.278,3.442-15.033,5.163-29.261,5.163
		c0.229-8.377-1.148-13.885-4.131-16.523c-3.441-2.869-8.949-4.706-16.523-5.508v-5.164h28.572
		c3.211-13.31,4.933-32.587,5.164-57.832h-31.326c-0.805,24.441-5.051,41.885-12.736,52.324
		c-10.1,14.114-29.377,25.703-57.832,34.769l-1.377-3.786c16.636-10.215,27.883-20.886,33.734-32.015
		c5.164-10.672,7.803-27.768,7.918-51.292h-15.49c-7.805,6.084-16.295,11.36-25.475,15.835l-1.721-2.065
		c9.062-10.784,16.58-22.488,22.548-35.112C-1413.163,1078.29-1408.744,1062.57-1405.302,1043.062z"/>
</g>
<path d="M-1243.284,1096.387h3.786c3.211,18.82,4.819,35.344,4.819,49.57c0,7.688-1.377,13.312-4.131,16.867
	c-3.902,4.362-8.722,6.541-14.458,6.541c-5.163,0-9.237-1.317-12.22-3.959c-2.87-2.866-4.304-6.137-4.304-9.811
	c0-9.867,4.359-18.589,13.081-26.162C-1249.024,1122.32-1244.549,1111.305-1243.284,1096.387z"/>
<path d="M-1225.729,1081.24l29.604,2.409c3.671,0.46,5.508,1.722,5.508,3.787c0,1.721-1.837,3.786-5.508,6.196v66.782
	c0,2.985,1.49,4.475,4.475,4.475h28.916c2.41,0,4.416-1.146,6.025-3.442c1.145-1.949,2.926-9.179,5.335-21.687h4.819
	c0,11.016,0.974,18.072,2.926,21.171c1.377,2.754,4.188,4.878,8.435,6.368c-1.493,11.244-3.73,18.129-6.713,20.654
	c-3.902,4.359-8.321,6.541-13.253,6.541h-57.488c-3.214,0-6.484-1.781-9.811-5.336c-2.182-3.674-3.271-7.517-3.271-11.532V1081.24z"
	/>
<path d="M-1217.368,1037.865c22.947,4.707,41.979,12.698,49.095,17.975c7.343,5.279,11.015,10.959,11.015,17.04
	c0,4.591-1.721,8.837-5.162,12.737c-3.787,4.131-7.345,6.196-10.672,6.196c-8.721,0-14.746-5.909-18.072-17.729
	c-4.246-12.049-16.336-25.316-28.27-33.81L-1217.368,1037.865z"/>
<path d="M-1152.062,1092.6c20.998,9.87,34.317,19.47,40.965,28.056c14.311,18.483,6.811,33.233,3.098,37.694
	c-3.064,3.681-7.115,5.163-11.359,5.163c-4.475,0-8.605-2.178-12.393-6.54c-3.674-3.671-5.912-12.049-6.713-25.13
	c-1.721-13.653-7.057-25.474-16.008-35.456L-1152.062,1092.6z"/>
<g>
	<path d="M-1045.733,1177.967c0,7.001-2.41,12.909-7.229,17.729c-4.819,4.819-10.559,7.229-17.212,7.229
		c-6.771,0-12.509-2.409-17.212-7.229c-4.819-4.819-7.229-10.728-7.229-17.729c0-6.653,2.409-12.393,7.229-17.212
		c4.703-4.819,10.44-7.229,17.212-7.229c6.653,0,12.393,2.41,17.212,7.229C-1048.144,1165.574-1045.733,1171.313-1045.733,1177.967z
		 M-1057.608,1177.967c0-3.442-1.32-6.31-3.959-8.606c-2.297-2.638-5.164-3.958-8.606-3.958c-3.673,0-6.6,1.32-8.778,3.958
		c-2.641,2.297-3.959,5.164-3.959,8.606c0,3.559,1.318,6.484,3.959,8.778c2.179,2.641,5.105,3.959,8.778,3.959
		c3.442,0,6.31-1.318,8.606-3.959C-1058.929,1184.451-1057.608,1181.525-1057.608,1177.967z"/>
</g>
<path d="M-1545.997,1494.786c0,9.099-3.234,16.716-9.699,22.853c-6.141,5.919-13.757,8.879-22.854,8.879
	c-2.521,0-6.246-0.77-11.179-2.303c-5.261-1.754-8.825-2.631-10.687-2.631c-1.755,0-4.439,1.863-8.056,5.591l-5.097-39.786
	l4.273-1.151c2.08,9.207,5.261,16.88,9.536,23.017c5.698,7.672,12.55,11.509,20.551,11.509c4.383,0,7.892-1.865,10.522-5.589
	c1.973-3.068,2.959-6.849,2.959-11.345c0-7.562-4.057-15.784-12.166-24.661c-7.233-7.67-14.689-15.454-22.359-23.346
	c-8.112-9.643-12.165-19.071-12.165-28.277c0-8.22,3.122-14.796,9.37-19.729c5.59-4.493,12.548-6.74,20.88-6.74
	c2.63,0,5.972,0.821,10.028,2.466c4.164,1.864,6.631,2.795,7.398,2.795c2.409,0,5.262-2.139,8.549-6.412l6.576,36.991l-4.274,0.986
	c-2.631-9.207-6.905-16.934-12.823-23.183c-5.482-5.588-10.469-8.383-14.961-8.383c-8.113,0-12.166,4.767-12.166,14.303
	c0,5.261,4.164,12.222,12.494,20.88c5.369,5.261,12.988,13.098,22.854,23.51
	C-1550.163,1474.236-1545.997,1484.156-1545.997,1494.786z"/>
<path d="M-1459.71,1435.107l-2.795,0.985c-10.415-19.07-17.484-28.605-21.209-28.605c-1.316,0-1.973,3.069-1.973,9.207v92.889
	c0,6.685,4.656,10.029,13.975,10.029v4.438h-51.788v-4.438c9.315,0,13.975-3.345,13.975-10.029v-92.396c0-6.468-0.657-9.7-1.974-9.7
	c-3.729,0-10.796,9.535-21.207,28.605l-2.795-0.821l5.425-33.209h64.94L-1459.71,1435.107z"/>
<path d="M-1365.903,1406.664c-6.471,0-9.701,2.96-9.701,8.879v82.367c0,19.071-10.086,28.607-30.25,28.607
	c-21.596,0-32.389-10.029-32.389-30.087v-79.9c0-6.576-2.906-9.866-8.714-9.866v-4.602h42.089v4.602
	c-6.248,0-9.371,3.346-9.371,10.03v81.052c0,14.577,5.096,21.866,15.288,21.866c5.479,0,9.866-1.92,13.152-5.755
	c3.29-3.725,4.933-8.328,4.933-13.811v-84.504c0-5.919-3.232-8.879-9.699-8.879v-4.602h24.662V1406.664z"/>
<path d="M-1277.839,1463.714c0,40.336-12.387,60.501-37.156,60.501h-35.676v-4.438c5.15,0.107,7.727-3.729,7.727-11.51v-90.917
	c0-3.505-0.328-6.025-0.986-7.562c-0.986-2.08-3.18-3.066-6.576-2.96v-4.602h33.867
	C-1290.773,1402.227-1277.839,1422.723-1277.839,1463.714z M-1301.843,1464.043c0-22.249-1.043-37.32-3.123-45.212
	c-1.644-8-4.604-12.003-8.879-12.003c-3.727,0-5.588,3.564-5.588,10.688v90.752c0,7.67,1.697,11.51,5.096,11.51
	C-1306.009,1519.777-1301.843,1501.198-1301.843,1464.043z"/>
<path d="M-1219.485,1524.215h-46.857v-4.603h1.973c3.066,0,5.533-0.822,7.4-2.466c1.75-2.084,2.63-4.548,2.63-7.399v-93.217
	c0-4.165-1.044-6.96-3.124-8.387c-1.645-0.985-4.604-1.479-8.879-1.479v-4.602h46.857v4.602c-4.277,0-7.236,0.494-8.879,1.479
	c-2.083,1.538-3.125,4.387-3.125,8.551v92.889c0,3.945,1.042,6.74,3.125,8.385c1.752,1.095,4.711,1.645,8.879,1.645V1524.215z"/>
<path d="M-1137.459,1463.878c0,15.676-2.03,28.936-6.081,39.787c-5.592,15.343-14.908,23.016-27.951,23.016
	c-13.152,0-22.522-7.673-28.112-23.016c-4.057-10.852-6.084-24.111-6.084-39.787c0-15.562,2.027-28.771,6.084-39.622
	c5.59-15.453,14.96-23.18,28.112-23.18c13.043,0,22.359,7.727,27.951,23.18C-1139.489,1435.107-1137.459,1448.315-1137.459,1463.878
	z M-1160.806,1463.878c0-38.031-3.561-57.05-10.686-57.05c-6.796,0-10.191,19.019-10.191,57.05c0,38.035,3.396,57.049,10.191,57.049
	C-1164.366,1520.927-1160.806,1501.913-1160.806,1463.878z"/>
<path d="M-1045.284,1507.774c0,5.154-1.863,9.536-5.59,13.152c-3.727,3.836-8.166,5.754-13.316,5.754
	c-5.153,0-9.593-1.918-13.316-5.754c-3.398-3.616-5.098-7.998-5.098-13.152c0-5.15,1.699-9.535,5.098-13.153
	c3.724-3.506,8.163-5.261,13.316-5.261c5.15,0,9.59,1.755,13.316,5.261C-1047.147,1498.239-1045.284,1502.624-1045.284,1507.774z"/>
<path d="M-1535.978,1270.997c0,21.265-12.605,31.895-37.814,31.895h-4.272v41.102c0,6.795,3.23,10.193,9.698,10.193v4.604h-42.088
	v-4.604c6.027,0,9.043-3.345,9.043-10.028v-93.054c0-6.686-3.016-9.974-9.043-9.865v-4.604h37.979
	C-1548.144,1236.636-1535.978,1248.091-1535.978,1270.997z M-1560.146,1271.819c0-6.795-0.549-12.768-1.644-17.921
	c-2.083-8.656-5.425-12.988-10.028-12.988c-4.168,0-6.247,3.453-6.247,10.357v46.856c7.233,0,12.108-2.738,14.631-8.221
	C-1561.242,1285.957-1560.146,1279.931-1560.146,1271.819z"/>
<path d="M-1455.13,1325.415l-6.576,33.375h-65.99v-4.604c6.906,0,10.358-3.288,10.358-9.864v-93.218
	c0-6.577-3.726-9.865-11.179-9.865v-4.604h46.855v4.604c-7.892,0-11.838,3.344-11.838,10.028v92.891
	c0,6.684,3.289,10.028,9.864,10.028c6.027,0,9.764-3.452,15.024-10.358c3.834-5.368,7.123-11.726,9.863-19.071L-1455.13,1325.415z"
	/>
<path d="M-1365.815,1358.79h-41.594v-4.604c5.588,0,8.383-1.646,8.383-4.932c0-0.986-0.604-4.165-1.807-9.537l-6.248-25.482h-20.387
	l-5.589,28.771c-0.55,2.958-0.822,5.097-0.822,6.412c0,1.751,1.48,3.066,4.439,3.946c1.862,0.546,3.944,0.821,6.247,0.821v4.604
	h-23.839v-4.604c4.603,0,7.728-3.616,9.372-10.852l18.906-101.438l17.263-7.398l27.29,111.14c0.438,1.972,1.369,3.889,2.795,5.753
	c1.533,1.863,3.396,2.796,5.59,2.796V1358.79z M-1408.067,1309.961l-10.521-42.087l-8.057,42.087H-1408.067z"/>
<path d="M-1292.661,1321.963c-3.399,26.197-13.922,39.293-31.566,39.293c-11.619,0-20.936-5.755-27.948-17.263
	c-7.234-11.617-10.851-26.576-10.851-44.884c0-15.891,2.355-29.481,7.068-40.771c6.467-15.126,16.713-22.688,30.744-22.688
	c2.849,0,6.467,0.768,10.852,2.302c4.383,1.865,6.795,2.795,7.232,2.795c1.535,0,4.275-1.973,8.221-5.919l2.302,40.115l-3.616,0.493
	c-6.029-22.797-14.25-34.196-24.66-34.196c-8.879,0-13.318,19.181-13.318,57.542c0,12.06,0.823,22.688,2.467,31.896
	c2.738,15.563,7.727,23.344,14.961,23.344s12.877-3.892,16.934-11.673c3.289-5.697,5.479-12.711,6.576-21.043L-1292.661,1321.963z"
	/>
<path d="M-1201.868,1325.25l-7.727,33.54h-69.545v-4.604c5.262,0,7.893-3.782,7.893-11.344v-90.096
	c0-7.67-2.631-11.508-7.893-11.508v-4.604h68.229l5.428,32.388l-3.289,0.658c-8.221-18.96-18.25-28.442-30.086-28.442
	c-2.742,0-4.988,1.043-6.742,3.124c-1.426,2.522-2.137,5.317-2.137,8.384v38.307h7.07c10.521,0,15.782-6.684,15.782-20.057h4.933
	v45.376h-4.933c0-13.919-5.317-20.88-15.947-20.88h-6.905v47.35c0,3.068,0.766,5.81,2.302,8.219
	c1.752,2.081,4.053,3.125,6.905,3.125h4.768c9.754,0,19.016-9.864,27.785-29.594L-1201.868,1325.25z"/>
<path d="M-1115.681,1324.922c0,10.521-3.016,18.688-9.041,24.497c-6.029,6.136-14.525,9.207-25.484,9.207h-39.457v-4.439
	c4.822,0,7.234-3.946,7.234-11.839v-90.586c0-7.015-2.467-10.465-7.398-10.358v-4.604h36.991c9.753,0,17.646,2.303,23.675,6.905
	c6.905,5.042,10.357,12.388,10.357,22.031c0,14.359-6.797,23.401-20.387,27.127
	C-1123.519,1297.905-1115.681,1308.592-1115.681,1324.922z M-1142.972,1266.723c0-16.879-3.508-25.319-10.521-25.319
	c-3.51,0-5.261,3.344-5.261,10.028v39.622C-1148.231,1291.054-1142.972,1282.944-1142.972,1266.723z M-1140.505,1325.744
	c0-9.097-0.933-15.837-2.795-20.223c-2.631-6.684-7.784-10.028-15.454-10.028v46.854c0,7.893,2.138,11.839,6.411,11.839
	C-1144.45,1354.187-1140.505,1344.707-1140.505,1325.744z"/>
<path d="M-1035.556,1298.452c0,15.675-2.029,28.936-6.082,39.786c-5.592,15.345-14.907,23.018-27.949,23.018
	c-13.152,0-22.523-7.673-28.114-23.018c-4.056-10.851-6.082-24.111-6.082-39.786c0-15.562,2.026-28.771,6.082-39.621
	c5.591-15.455,14.962-23.182,28.114-23.182c13.042,0,22.357,7.727,27.949,23.182
	C-1037.585,1269.682-1035.556,1282.89-1035.556,1298.452z M-1058.901,1298.452c0-38.032-3.562-57.049-10.686-57.049
	c-6.798,0-10.193,19.017-10.193,57.049c0,38.034,3.396,57.049,10.193,57.049
	C-1062.464,1355.501-1058.901,1336.486-1058.901,1298.452z"/>
<g>
	<path fill="#FFFFFF" d="M223.194,320.336l20.654,17.213l-4.475,4.819H126.808v34.079h66.61l13.253-13.77l26.507,20.139
		c1.605,1.148,2.409,2.582,2.409,4.303c0,0.92-1.264,1.721-3.786,2.41l-6.196,1.377c-6.312,19.965-13.941,36.031-22.893,48.192
		c12.737,4.131,27.48,7.345,44.235,9.639v5.164c-6.885,4.131-11.476,15.031-13.77,32.703c-22.263-7.229-39.991-16.066-53.185-26.507
		c-18.245,11.36-43.318,19.391-75.217,24.097l-0.688-4.475c26.275-8.493,46.185-20.082,59.726-34.769
		c0.229-0.457,0.4-0.745,0.516-0.86c-11.359-14.803-19.621-35.629-24.785-62.479h-12.736v18.244
		c-0.115,15.951-2.926,30.638-8.434,44.062c-6.312,15.031-16.928,28.801-31.842,41.31l-2.754-2.41
		c5.047-9.294,8.834-20.254,11.359-32.875c2.178-11.473,3.326-28.168,3.442-50.087v-75.044l28.916,12.737h81.239L223.194,320.336z
		 M143.503,381.611c4.244,15.606,12.564,28.859,24.957,39.76c2.41,2.297,5.164,4.246,8.262,5.852
		c6.654-12.048,12.277-27.251,16.868-45.611H143.503z"/>
</g>
<g>
	<path fill="#FFFFFF" d="M230.769,518.336l16.867,13.426l-3.098,4.819h-49.916v12.737h11.36l12.737-9.983l19.277,12.909
		c1.834,1.377,2.754,2.697,2.754,3.959c0,1.264-2.525,2.524-7.573,3.786v13.253l11.36,8.778l-3.1,5.164h-19.621l16.868,10.671
		c1.834,1.493,2.753,2.754,2.753,3.787c0,1.032-2.524,2.297-7.572,3.786v23.753l-14.803,1.894l14.975,9.122
		c1.949,1.264,2.926,2.409,2.926,3.442c0,1.148-0.688,1.952-2.064,2.409l-3.787,0.688c-4.246,3.559-8.722,6.713-13.426,9.467
		c8.375,1.033,17.557,1.662,27.539,1.894v2.065c-5.508,4.244-8.949,12.393-10.326,24.441c-21.919-2.754-38.154-7.058-48.711-12.909
		c-14.457,4.819-33.679,8.891-57.66,12.221l-0.688-2.41c19.85-7,34.939-13.425,45.268-19.277c-3.099-3.558-5.912-7.514-8.435-11.876
		c-8.606,5.736-18.704,10.268-30.293,13.598l-1.377-2.754c7.229-5.164,12.851-10.5,16.868-16.008
		c2.754-3.555,5.336-8.03,7.745-13.425l-12.565,1.893v-33.907c-6.885,2.525-14,4.419-21.342,5.68l-0.689-1.377
		c5.853-3.442,11.072-7.974,15.664-13.598c3.326-3.211,7.229-8.547,11.703-16.007h-30.465v3.614l15.318,3.271
		c1.95,0.46,2.926,1.493,2.926,3.099c0,1.377-1.721,2.641-5.163,3.786c-6.771,5.508-13.196,9.927-19.277,13.254
		c-0.804,0.575-1.665,0.976-2.581,1.204l25.301,6.196c2.294,0.46,3.442,1.377,3.442,2.754c0,1.608-1.837,3.099-5.508,4.476
		c-3.673,3.558-7.229,6.54-10.671,8.95l2.754,0.517c1.834,0.46,2.754,1.092,2.754,1.893c0,1.377-1.264,2.642-3.787,3.787v50.947
		l-26.506,2.41v-44.063c-4.247,2.41-8.606,4.476-13.082,6.196l-2.064-1.032c6.08-6.541,11.188-13.366,15.318-20.482
		c2.982-4.932,5.908-11.933,8.777-20.998c-7,3.558-14.573,6.828-22.719,9.811l-1.722-1.722c5.965-5.508,11.128-11.244,15.491-17.212
		c2.754-3.786,5.336-8.778,7.745-14.975l-13.942,1.894v-41.652l26.852,8.95h11.016v-12.737H85.155l-1.722-4.819H218.72
		L230.769,518.336z M119.923,569.973h10.672v-16.18h-10.672V569.973z M168.805,549.318v-12.737h-11.704v12.737H168.805z
		 M157.101,569.973h11.704v-16.18h-11.704V569.973z M207.359,594.758l10.155-7.573h-50.087c-2.181,1.607-4.419,3.157-6.712,4.646
		l9.121,2.927H207.359z M173.796,582.021h42.858l5.853-6.54l-16.524,2.754v-3.787h-36.317l6.885,1.033
		c1.722,0.575,2.582,1.492,2.582,2.754c0,1.148-1.492,2.181-4.475,3.098C174.197,581.677,173.909,581.907,173.796,582.021z
		 M170.87,607.839h36.489v-8.262H170.87V607.839z M170.87,621.608h36.489v-9.295H170.87V621.608z M171.559,644.672
		c5.508,3.33,11.245,5.796,17.212,7.401c0.344,0.116,0.573,0.172,0.688,0.172c4.933-3.671,9.639-7.573,14.114-11.704h-28.229
		C174.081,642.149,172.819,643.526,171.559,644.672z M207.188,636.066l7.401-4.476l-7.229,0.688v-6.196h-20.31
		c-2.41,3.674-4.879,7.001-7.401,9.983H207.188z M194.622,569.973h11.36v-16.18h-11.36V569.973z"/>
</g>
<g>
	<path fill="#FFFFFF" d="M295.546,529.287l32.531,8.434c2.638,0.575,3.958,1.549,3.958,2.926c0,1.837-2.296,3.442-6.885,4.819
		c-8.262,17.9-17.271,32.015-27.022,42.342c-1.721,1.837-3.674,3.558-5.852,5.163h69.535l14.286-12.736
		c-7.573-13.081-11.876-26.735-12.909-40.965h-27.367l-1.721-4.475h23.925l9.811-12.394l17.557,11.705
		c2.065,1.836,3.211,3.329,3.442,4.475c-0.231,1.837-1.377,3.099-3.442,3.787l-12.394,3.098
		c13.082,12.624,29.834,22.376,50.26,29.261v4.819c-9.295,8.837-14.918,19.509-16.867,32.014c-4.02-2.754-7.633-5.392-10.844-7.917
		l-1.894,0.688c0,17.9-1.093,34.655-3.271,50.259c-2.297,12.049-5.68,19.734-10.155,23.064c-5.278,3.442-15.033,5.163-29.261,5.163
		c0.229-8.377-1.148-13.885-4.131-16.523c-3.441-2.869-8.949-4.706-16.523-5.508v-5.164h28.572
		c3.211-13.31,4.933-32.587,5.164-57.832h-31.326c-0.805,24.441-5.051,41.885-12.736,52.324
		c-10.1,14.114-29.377,25.703-57.832,34.769l-1.377-3.786c16.636-10.215,27.883-20.886,33.734-32.015
		c5.164-10.672,7.803-27.768,7.918-51.292h-15.49c-7.805,6.084-16.295,11.36-25.475,15.835l-1.721-2.065
		c9.062-10.784,16.58-22.488,22.548-35.112C287.685,564.515,292.104,548.795,295.546,529.287z"/>
</g>
<path fill="#FFFFFF" d="M457.563,582.611h3.786c3.211,18.82,4.819,35.344,4.819,49.57c0,7.688-1.377,13.312-4.131,16.867
	c-3.902,4.362-8.722,6.541-14.458,6.541c-5.163,0-9.237-1.317-12.22-3.959c-2.87-2.866-4.304-6.137-4.304-9.811
	c0-9.867,4.359-18.589,13.081-26.162C451.823,608.545,456.299,597.529,457.563,582.611z"/>
<path fill="#FFFFFF" d="M475.119,567.465l29.604,2.409c3.671,0.46,5.508,1.722,5.508,3.787c0,1.721-1.837,3.786-5.508,6.196v66.782
	c0,2.985,1.49,4.475,4.475,4.475h28.916c2.41,0,4.416-1.146,6.025-3.442c1.145-1.949,2.926-9.179,5.335-21.687h4.819
	c0,11.016,0.974,18.072,2.926,21.171c1.377,2.754,4.188,4.878,8.435,6.368c-1.493,11.244-3.73,18.129-6.713,20.654
	c-3.902,4.359-8.321,6.541-13.253,6.541H488.2c-3.214,0-6.484-1.781-9.811-5.336c-2.182-3.674-3.271-7.517-3.271-11.532V567.465z"/>
<path fill="#FFFFFF" d="M483.479,524.09c22.947,4.707,41.979,12.698,49.095,17.975c7.343,5.279,11.015,10.959,11.015,17.04
	c0,4.591-1.721,8.837-5.162,12.737c-3.787,4.131-7.345,6.196-10.672,6.196c-8.721,0-14.746-5.909-18.072-17.729
	c-4.246-12.049-16.336-25.316-28.27-33.81L483.479,524.09z"/>
<path fill="#FFFFFF" d="M548.786,578.824c20.998,9.87,34.317,19.47,40.965,28.056c14.311,18.483,6.811,33.233,3.098,37.694
	c-3.064,3.681-7.115,5.163-11.359,5.163c-4.475,0-8.605-2.178-12.393-6.54c-3.674-3.671-5.912-12.049-6.713-25.13
	c-1.721-13.653-7.057-25.474-16.008-35.456L548.786,578.824z"/>
<g>
	<path fill="#FFFFFF" d="M655.114,664.191c0,7.001-2.41,12.909-7.229,17.729c-4.819,4.819-10.559,7.229-17.212,7.229
		c-6.771,0-12.509-2.409-17.212-7.229c-4.819-4.819-7.229-10.728-7.229-17.729c0-6.653,2.409-12.393,7.229-17.212
		c4.703-4.819,10.44-7.229,17.212-7.229c6.653,0,12.393,2.41,17.212,7.229C652.704,651.799,655.114,657.538,655.114,664.191z
		 M643.239,664.191c0-3.442-1.32-6.31-3.959-8.606c-2.297-2.638-5.164-3.958-8.606-3.958c-3.673,0-6.6,1.32-8.778,3.958
		c-2.641,2.297-3.959,5.164-3.959,8.606c0,3.559,1.318,6.484,3.959,8.778c2.179,2.641,5.105,3.959,8.778,3.959
		c3.442,0,6.31-1.318,8.606-3.959C641.919,670.676,643.239,667.75,643.239,664.191z"/>
</g>
<path fill="#FFFFFF" d="M154.851,981.011c0,9.099-3.234,16.716-9.699,22.853c-6.141,5.919-13.757,8.879-22.854,8.879
	c-2.521,0-6.246-0.77-11.179-2.303c-5.261-1.754-8.825-2.631-10.687-2.631c-1.755,0-4.439,1.863-8.056,5.591l-5.097-39.786
	l4.273-1.151c2.08,9.207,5.261,16.88,9.536,23.017c5.698,7.672,12.55,11.509,20.551,11.509c4.383,0,7.892-1.865,10.522-5.589
	c1.973-3.068,2.959-6.849,2.959-11.345c0-7.562-4.057-15.784-12.166-24.661c-7.233-7.67-14.689-15.454-22.359-23.346
	c-8.112-9.643-12.165-19.071-12.165-28.277c0-8.22,3.122-14.796,9.37-19.729c5.59-4.493,12.548-6.74,20.88-6.74
	c2.63,0,5.972,0.821,10.028,2.466c4.164,1.864,6.631,2.795,7.398,2.795c2.409,0,5.262-2.139,8.549-6.412l6.576,36.991l-4.274,0.986
	c-2.631-9.207-6.905-16.934-12.823-23.183c-5.482-5.588-10.469-8.383-14.961-8.383c-8.113,0-12.166,4.767-12.166,14.303
	c0,5.261,4.164,12.222,12.494,20.88c5.369,5.261,12.988,13.098,22.854,23.51C150.685,960.461,154.851,970.381,154.851,981.011z"/>
<path fill="#FFFFFF" d="M241.138,921.332l-2.795,0.985c-10.415-19.07-17.484-28.605-21.209-28.605c-1.316,0-1.973,3.069-1.973,9.207
	v92.889c0,6.685,4.656,10.029,13.975,10.029v4.438h-51.788v-4.438c9.315,0,13.975-3.345,13.975-10.029v-92.396
	c0-6.468-0.657-9.7-1.974-9.7c-3.729,0-10.796,9.535-21.207,28.605l-2.795-0.821l5.425-33.209h64.94L241.138,921.332z"/>
<path fill="#FFFFFF" d="M334.944,892.889c-6.471,0-9.701,2.96-9.701,8.879v82.367c0,19.071-10.086,28.607-30.25,28.607
	c-21.596,0-32.389-10.029-32.389-30.087v-79.9c0-6.576-2.906-9.866-8.714-9.866v-4.602h42.089v4.602
	c-6.248,0-9.371,3.346-9.371,10.03v81.052c0,14.577,5.096,21.866,15.288,21.866c5.479,0,9.866-1.92,13.152-5.755
	c3.29-3.725,4.933-8.328,4.933-13.811v-84.504c0-5.919-3.232-8.879-9.699-8.879v-4.602h24.662V892.889z"/>
<path fill="#FFFFFF" d="M423.009,949.938c0,40.336-12.387,60.501-37.156,60.501h-35.676v-4.438c5.15,0.107,7.727-3.729,7.727-11.51
	v-90.917c0-3.505-0.328-6.025-0.986-7.562c-0.986-2.08-3.18-3.066-6.576-2.96v-4.602h33.867
	C410.074,888.451,423.009,908.947,423.009,949.938z M399.005,950.268c0-22.249-1.043-37.32-3.123-45.212
	c-1.644-8-4.604-12.003-8.879-12.003c-3.727,0-5.588,3.564-5.588,10.688v90.752c0,7.67,1.697,11.51,5.096,11.51
	C394.839,1006.002,399.005,987.423,399.005,950.268z"/>
<path fill="#FFFFFF" d="M481.362,1010.439h-46.857v-4.603h1.973c3.066,0,5.533-0.822,7.4-2.466c1.75-2.084,2.63-4.548,2.63-7.399
	v-93.217c0-4.165-1.044-6.96-3.124-8.387c-1.645-0.985-4.604-1.479-8.879-1.479v-4.602h46.857v4.602
	c-4.277,0-7.236,0.494-8.879,1.479c-2.083,1.538-3.125,4.387-3.125,8.551v92.889c0,3.945,1.042,6.74,3.125,8.385
	c1.752,1.095,4.711,1.645,8.879,1.645V1010.439z"/>
<path fill="#FFFFFF" d="M563.389,950.103c0,15.676-2.03,28.936-6.081,39.787c-5.592,15.343-14.908,23.016-27.951,23.016
	c-13.152,0-22.522-7.673-28.112-23.016c-4.057-10.852-6.084-24.111-6.084-39.787c0-15.562,2.027-28.771,6.084-39.622
	c5.59-15.453,14.96-23.18,28.112-23.18c13.043,0,22.359,7.727,27.951,23.18C561.358,921.332,563.389,934.54,563.389,950.103z
	 M540.042,950.103c0-38.031-3.561-57.05-10.686-57.05c-6.796,0-10.191,19.019-10.191,57.05c0,38.035,3.396,57.049,10.191,57.049
	C536.481,1007.151,540.042,988.138,540.042,950.103z"/>
<path fill="#FFFFFF" d="M655.563,993.999c0,5.154-1.863,9.536-5.59,13.152c-3.727,3.836-8.166,5.754-13.316,5.754
	c-5.153,0-9.593-1.918-13.316-5.754c-3.398-3.616-5.098-7.998-5.098-13.152c0-5.15,1.699-9.535,5.098-13.153
	c3.724-3.506,8.163-5.261,13.316-5.261c5.15,0,9.59,1.755,13.316,5.261C653.7,984.464,655.563,988.849,655.563,993.999z"/>
<path fill="#FFFFFF" d="M164.87,757.222c0,21.265-12.605,31.895-37.814,31.895h-4.272v41.102c0,6.795,3.23,10.193,9.698,10.193
	v4.604H90.394v-4.604c6.027,0,9.043-3.345,9.043-10.028v-93.054c0-6.686-3.016-9.974-9.043-9.865v-4.604h37.979
	C152.704,722.86,164.87,734.315,164.87,757.222z M140.702,758.044c0-6.795-0.549-12.768-1.644-17.921
	c-2.083-8.656-5.425-12.988-10.028-12.988c-4.168,0-6.247,3.453-6.247,10.357v46.856c7.233,0,12.108-2.738,14.631-8.221
	C139.605,772.182,140.702,766.155,140.702,758.044z"/>
<path fill="#FFFFFF" d="M245.718,811.64l-6.576,33.375h-65.99v-4.604c6.906,0,10.358-3.288,10.358-9.864v-93.218
	c0-6.577-3.726-9.865-11.179-9.865v-4.604h46.855v4.604c-7.892,0-11.838,3.344-11.838,10.028v92.891
	c0,6.684,3.289,10.028,9.864,10.028c6.027,0,9.764-3.452,15.024-10.358c3.834-5.368,7.123-11.726,9.863-19.071L245.718,811.64z"/>
<path fill="#FFFFFF" d="M335.032,845.015h-41.594v-4.604c5.588,0,8.383-1.646,8.383-4.932c0-0.986-0.604-4.165-1.807-9.537
	l-6.248-25.482H273.38l-5.589,28.771c-0.55,2.958-0.822,5.097-0.822,6.412c0,1.751,1.48,3.066,4.439,3.946
	c1.862,0.546,3.944,0.821,6.247,0.821v4.604h-23.839v-4.604c4.603,0,7.728-3.616,9.372-10.852l18.906-101.438l17.263-7.398
	l27.29,111.14c0.438,1.972,1.369,3.889,2.795,5.753c1.533,1.863,3.396,2.796,5.59,2.796V845.015z M292.78,796.186l-10.521-42.087
	l-8.057,42.087H292.78z"/>
<path fill="#FFFFFF" d="M408.187,808.188c-3.399,26.197-13.922,39.293-31.566,39.293c-11.619,0-20.936-5.755-27.948-17.263
	c-7.234-11.617-10.851-26.576-10.851-44.884c0-15.891,2.355-29.481,7.068-40.771c6.467-15.126,16.713-22.688,30.744-22.688
	c2.849,0,6.467,0.768,10.852,2.302c4.383,1.865,6.795,2.795,7.232,2.795c1.535,0,4.275-1.973,8.221-5.919l2.302,40.115l-3.616,0.493
	c-6.029-22.797-14.25-34.196-24.66-34.196c-8.879,0-13.318,19.181-13.318,57.542c0,12.06,0.823,22.688,2.467,31.896
	c2.738,15.563,7.727,23.344,14.961,23.344s12.877-3.892,16.934-11.673c3.289-5.697,5.479-12.711,6.576-21.043L408.187,808.188z"/>
<path fill="#FFFFFF" d="M498.979,811.475l-7.727,33.54h-69.545v-4.604c5.262,0,7.893-3.782,7.893-11.344v-90.096
	c0-7.67-2.631-11.508-7.893-11.508v-4.604h68.229l5.428,32.388l-3.289,0.658c-8.221-18.96-18.25-28.442-30.086-28.442
	c-2.742,0-4.988,1.043-6.742,3.124c-1.426,2.522-2.137,5.317-2.137,8.384v38.307h7.07c10.521,0,15.782-6.684,15.782-20.057h4.933
	v45.376h-4.933c0-13.919-5.317-20.88-15.947-20.88h-6.905v47.35c0,3.068,0.766,5.81,2.302,8.219
	c1.752,2.081,4.053,3.125,6.905,3.125h4.768c9.754,0,19.016-9.864,27.785-29.594L498.979,811.475z"/>
<path fill="#FFFFFF" d="M585.167,811.146c0,10.521-3.016,18.688-9.041,24.497c-6.029,6.136-14.525,9.207-25.484,9.207h-39.457
	v-4.439c4.822,0,7.234-3.946,7.234-11.839v-90.586c0-7.015-2.467-10.465-7.398-10.358v-4.604h36.991
	c9.753,0,17.646,2.303,23.675,6.905c6.905,5.042,10.357,12.388,10.357,22.031c0,14.359-6.797,23.401-20.387,27.127
	C577.329,784.13,585.167,794.816,585.167,811.146z M557.876,752.947c0-16.879-3.508-25.319-10.521-25.319
	c-3.51,0-5.261,3.344-5.261,10.028v39.622C552.616,777.278,557.876,769.169,557.876,752.947z M560.343,811.969
	c0-9.097-0.933-15.837-2.795-20.223c-2.631-6.684-7.784-10.028-15.454-10.028v46.854c0,7.893,2.138,11.839,6.411,11.839
	C556.397,840.411,560.343,830.932,560.343,811.969z"/>
<path fill="#FFFFFF" d="M665.292,784.677c0,15.675-2.029,28.936-6.082,39.786c-5.592,15.345-14.907,23.018-27.949,23.018
	c-13.152,0-22.523-7.673-28.114-23.018c-4.056-10.851-6.082-24.111-6.082-39.786c0-15.562,2.026-28.771,6.082-39.621
	c5.591-15.455,14.962-23.182,28.114-23.182c13.042,0,22.357,7.727,27.949,23.182C663.263,755.906,665.292,769.114,665.292,784.677z
	 M641.946,784.677c0-38.032-3.562-57.049-10.686-57.049c-6.798,0-10.193,19.017-10.193,57.049c0,38.034,3.396,57.049,10.193,57.049
	C638.384,841.726,641.946,822.711,641.946,784.677z"/>
</svg>
